<?xml version="1.0" encoding="UTF-8" standalone="no"?>
<!-- Created with Inkscape (http://www.inkscape.org/) -->

<svg
   xmlns:dc="http://purl.org/dc/elements/1.1/"
   xmlns:cc="http://creativecommons.org/ns#"
   xmlns:rdf="http://www.w3.org/1999/02/22-rdf-syntax-ns#"
   xmlns:svg="http://www.w3.org/2000/svg"
   xmlns="http://www.w3.org/2000/svg"
   xmlns:sodipodi="http://sodipodi.sourceforge.net/DTD/sodipodi-0.dtd"
   xmlns:inkscape="http://www.inkscape.org/namespaces/inkscape"
   width="531.49603"
   height="531.49603"
   id="svg7587"
   version="1.1"
   inkscape:version="0.48.4 r9939"
   sodipodi:docname="Machines.svg">
  <defs
     id="defs7589">
    <filter
       color-interpolation-filters="sRGB"
       inkscape:collect="always"
       id="filter6521-3-1">
      <feBlend
         inkscape:collect="always"
         mode="lighten"
         in2="BackgroundImage"
         id="feBlend6523-4-5" />
    </filter>
    <filter
       color-interpolation-filters="sRGB"
       inkscape:collect="always"
       id="filter10276">
      <feBlend
         inkscape:collect="always"
         mode="darken"
         in2="BackgroundImage"
         id="feBlend10278" />
    </filter>
    <filter
       color-interpolation-filters="sRGB"
       inkscape:collect="always"
       id="filter6521-3">
      <feBlend
         inkscape:collect="always"
         mode="lighten"
         in2="BackgroundImage"
         id="feBlend6523-4" />
    </filter>
    <filter
       color-interpolation-filters="sRGB"
       inkscape:collect="always"
       id="filter6521">
      <feBlend
         inkscape:collect="always"
         mode="lighten"
         in2="BackgroundImage"
         id="feBlend6523" />
    </filter>
    <filter
       color-interpolation-filters="sRGB"
       inkscape:collect="always"
       id="filter10276-7">
      <feBlend
         inkscape:collect="always"
         mode="darken"
         in2="BackgroundImage"
         id="feBlend10278-1" />
    </filter>
    <filter
       color-interpolation-filters="sRGB"
       inkscape:collect="always"
       id="filter6521-3-8">
      <feBlend
         inkscape:collect="always"
         mode="lighten"
         in2="BackgroundImage"
         id="feBlend6523-4-1" />
    </filter>
    <filter
       color-interpolation-filters="sRGB"
       inkscape:collect="always"
       id="filter6521-3-8-3">
      <feBlend
         inkscape:collect="always"
         mode="lighten"
         in2="BackgroundImage"
         id="feBlend6523-4-1-8" />
    </filter>
    <filter
       color-interpolation-filters="sRGB"
       inkscape:collect="always"
       id="filter6521-3-8-9">
      <feBlend
         inkscape:collect="always"
         mode="lighten"
         in2="BackgroundImage"
         id="feBlend6523-4-1-4" />
    </filter>
    <filter
       color-interpolation-filters="sRGB"
       inkscape:collect="always"
       id="filter10276-7-0">
      <feBlend
         inkscape:collect="always"
         mode="darken"
         in2="BackgroundImage"
         id="feBlend10278-1-1" />
    </filter>
    <filter
       color-interpolation-filters="sRGB"
       inkscape:collect="always"
       id="filter10276-7-0-1">
      <feBlend
         inkscape:collect="always"
         mode="darken"
         in2="BackgroundImage"
         id="feBlend10278-1-1-4" />
    </filter>
    <filter
       color-interpolation-filters="sRGB"
       inkscape:collect="always"
       id="filter10276-7-3">
      <feBlend
         inkscape:collect="always"
         mode="darken"
         in2="BackgroundImage"
         id="feBlend10278-1-9" />
    </filter>
    <filter
       color-interpolation-filters="sRGB"
       inkscape:collect="always"
       id="filter10276-3">
      <feBlend
         inkscape:collect="always"
         mode="darken"
         in2="BackgroundImage"
         id="feBlend10278-7" />
    </filter>
    <filter
       color-interpolation-filters="sRGB"
       inkscape:collect="always"
       id="filter10276-3-5">
      <feBlend
         inkscape:collect="always"
         mode="darken"
         in2="BackgroundImage"
         id="feBlend10278-7-3" />
    </filter>
    <filter
       color-interpolation-filters="sRGB"
       inkscape:collect="always"
       id="filter10276-3-1">
      <feBlend
         inkscape:collect="always"
         mode="darken"
         in2="BackgroundImage"
         id="feBlend10278-7-7" />
    </filter>
    <filter
       color-interpolation-filters="sRGB"
       inkscape:collect="always"
       id="filter10276-1">
      <feBlend
         inkscape:collect="always"
         mode="darken"
         in2="BackgroundImage"
         id="feBlend10278-71" />
    </filter>
    <filter
       color-interpolation-filters="sRGB"
       inkscape:collect="always"
       id="filter10276-1-8">
      <feBlend
         inkscape:collect="always"
         mode="darken"
         in2="BackgroundImage"
         id="feBlend10278-71-5" />
    </filter>
    <filter
       color-interpolation-filters="sRGB"
       inkscape:collect="always"
       id="filter10276-1-1">
      <feBlend
         inkscape:collect="always"
         mode="darken"
         in2="BackgroundImage"
         id="feBlend10278-71-2" />
    </filter>
    <filter
       color-interpolation-filters="sRGB"
       inkscape:collect="always"
       id="filter10276-79">
      <feBlend
         inkscape:collect="always"
         mode="darken"
         in2="BackgroundImage"
         id="feBlend10278-3" />
    </filter>
    <filter
       color-interpolation-filters="sRGB"
       inkscape:collect="always"
       id="filter10276-79-6">
      <feBlend
         inkscape:collect="always"
         mode="darken"
         in2="BackgroundImage"
         id="feBlend10278-3-0" />
    </filter>
    <filter
       color-interpolation-filters="sRGB"
       inkscape:collect="always"
       id="filter10276-79-0">
      <feBlend
         inkscape:collect="always"
         mode="darken"
         in2="BackgroundImage"
         id="feBlend10278-3-06" />
    </filter>
    <filter
       color-interpolation-filters="sRGB"
       inkscape:collect="always"
       id="filter6521-6">
      <feBlend
         inkscape:collect="always"
         mode="lighten"
         in2="BackgroundImage"
         id="feBlend6523-0" />
    </filter>
    <filter
       color-interpolation-filters="sRGB"
       inkscape:collect="always"
       id="filter10276-6">
      <feBlend
         inkscape:collect="always"
         mode="darken"
         in2="BackgroundImage"
         id="feBlend10278-6" />
    </filter>
    <filter
       color-interpolation-filters="sRGB"
       inkscape:collect="always"
       id="filter10276-6-3">
      <feBlend
         inkscape:collect="always"
         mode="darken"
         in2="BackgroundImage"
         id="feBlend10278-6-7" />
    </filter>
    <filter
       color-interpolation-filters="sRGB"
       inkscape:collect="always"
       id="filter6521-6-3">
      <feBlend
         inkscape:collect="always"
         mode="lighten"
         in2="BackgroundImage"
         id="feBlend6523-0-5" />
    </filter>
    <filter
       color-interpolation-filters="sRGB"
       inkscape:collect="always"
       id="filter10276-6-7">
      <feBlend
         inkscape:collect="always"
         mode="darken"
         in2="BackgroundImage"
         id="feBlend10278-6-6" />
    </filter>
  </defs>
  <sodipodi:namedview
     id="base"
     pagecolor="#ffffff"
     bordercolor="#666666"
     borderopacity="1.0"
     inkscape:pageopacity="0.0"
     inkscape:pageshadow="2"
     inkscape:zoom="0.1767767"
     inkscape:cx="-757.5879"
     inkscape:cy="1430.2078"
     inkscape:document-units="mm"
     inkscape:current-layer="layer1"
     showgrid="false"
     units="cm"
     inkscape:snap-global="true"
     inkscape:object-nodes="true"
     inkscape:object-paths="true"
     inkscape:snap-midpoints="true"
     inkscape:window-width="1536"
     inkscape:window-height="803"
     inkscape:window-x="-8"
     inkscape:window-y="-8"
     inkscape:window-maximized="1" />
  <metadata
     id="metadata7592">
    <rdf:RDF>
      <cc:Work
         rdf:about="">
        <dc:format>image/svg+xml</dc:format>
        <dc:type
           rdf:resource="http://purl.org/dc/dcmitype/StillImage" />
        <dc:title></dc:title>
      </cc:Work>
    </rdf:RDF>
  </metadata>
  <g
     inkscape:label="Calque 1"
     inkscape:groupmode="layer"
     id="layer1"
     transform="translate(0,-520.86482)">
    <g
       id="g9216"
       transform="translate(32.279022,55.100793)">
      <rect
         y="-963.38293"
         x="-3113.2085"
         height="73.057823"
         width="201.85895"
         id="rect6458-7"
         style="fill:none;stroke:#000000;stroke-width:4.25196838;stroke-linecap:round;stroke-linejoin:round;stroke-miterlimit:4;stroke-opacity:1;stroke-dasharray:none;display:inline;filter:url(#filter10276-7)" />
      <rect
         y="-890.32513"
         x="-2959.8037"
         height="58.667747"
         width="48.45417"
         id="rect6485-7"
         style="fill:none;stroke:#000000;stroke-width:4.25196838;stroke-miterlimit:4;stroke-opacity:1;stroke-dasharray:none;display:inline;filter:url(#filter10276-7)" />
      <rect
         y="-890.32513"
         x="-3113.2085"
         height="58.667747"
         width="48.45417"
         id="rect6485-0-7"
         style="fill:none;stroke:#000000;stroke-width:4.25196838;stroke-linejoin:round;stroke-miterlimit:4;stroke-opacity:1;stroke-dasharray:none;display:inline;filter:url(#filter10276-7)" />
      <rect
         transform="matrix(0.98851686,0,0,1,-33.994329,0)"
         y="-871.7511"
         x="-3065.967"
         height="20.066786"
         width="105.59879"
         id="rect6505-7"
         style="fill:none;stroke:#000000;stroke-width:4.27659369;stroke-linecap:round;stroke-linejoin:round;stroke-miterlimit:4;stroke-opacity:1;stroke-dasharray:none;display:inline;filter:url(#filter10276-7)" />
      <path
         sodipodi:nodetypes="ccccc"
         inkscape:connector-curvature="0"
         id="rect6507-3"
         d="m -3094.0955,-984.25353 165.7047,0 16.9278,20.8706 -201.7455,0 z"
         style="fill:none;stroke:#000000;stroke-width:4.25196838;stroke-linecap:round;stroke-linejoin:round;stroke-miterlimit:4;stroke-opacity:1;stroke-dasharray:none;display:inline;filter:url(#filter10276-7)" />
      <path
         sodipodi:nodetypes="cccc"
         inkscape:connector-curvature="0"
         id="path4786-3"
         d="m -3096.4423,-963.38293 0,13.1699 167.4612,0 0,-13.1699"
         style="fill:none;stroke:#000000;stroke-width:4.25196838;stroke-linecap:round;stroke-linejoin:round;stroke-miterlimit:4;stroke-opacity:1;stroke-dasharray:none;display:inline;filter:url(#filter10276-7)" />
      <path
         sodipodi:nodetypes="cccc"
         inkscape:connector-curvature="0"
         id="path5556-5"
         d="m -3075.0626,-950.27599 0,8.7369 28.6909,0 0,-8.1514"
         style="fill:none;stroke:#000000;stroke-width:4.25196838;stroke-linecap:butt;stroke-linejoin:round;stroke-miterlimit:4;stroke-opacity:1;stroke-dasharray:none;display:inline;filter:url(#filter10276-7)" />
      <path
         inkscape:connector-curvature="0"
         id="path5558-9"
         d="m -3060.9662,-932.20809 a 1.50015,1.50015 0 0 0 -1.3125,1.5312 l 0,21.9376 0,1.4687 c -0.1816,0.034 -0.3537,0.079 -0.5313,0.125 l -5.3124,-12.9063 a 1.50015,1.50015 0 0 0 -1.4063,-0.9687 1.50015,1.50015 0 0 0 -1.3437,2.0937 l 5.375,13.0313 c -0.1365,0.096 -0.2756,0.1776 -0.4063,0.2813 l -6.5313,-6.5313 a 1.50015,1.50015 0 0 0 -1.2187,-0.4687 1.50015,1.50015 0 0 0 -0.9063,2.5624 l 6.6876,6.6563 c -0.2212,0.3483 -0.4194,0.7134 -0.5938,1.0937 l -12.875,-3.9687 a 1.50015,1.50015 0 0 0 -0.5938,-0.094 1.50015,1.50015 0 0 0 -0.3124,2.9374 l 13,4 c 0,0.01 0,0.021 0,0.031 l 16.9687,0 11.3125,-3.4375 a 1.5026019,1.5026019 0 1 0 -0.875,-2.875 l -11.25,3.4062 c -0.1722,-0.3755 -0.3447,-0.7493 -0.5625,-1.0937 l 8.3437,-8.3125 a 1.5026019,1.5026019 0 1 0 -2.125,-2.125 l -7.7187,7.7188 6.3125,-12.4063 a 1.50015,1.50015 0 1 0 -2.6562,-1.3437 l -6.5938,12.9062 c -0.3858,-0.1355 -0.7795,-0.2358 -1.1875,-0.3125 l 0,-1.4687 0,-21.9376 a 1.50015,1.50015 0 0 0 -1.5313,-1.5312 1.50015,1.50015 0 0 0 -0.1562,0 z"
         style="font-size:medium;font-style:normal;font-variant:normal;font-weight:normal;font-stretch:normal;text-indent:0;text-align:start;text-decoration:none;line-height:normal;letter-spacing:normal;word-spacing:normal;text-transform:none;direction:ltr;block-progression:tb;writing-mode:lr-tb;text-anchor:start;baseline-shift:baseline;color:#000000;fill:#000000;fill-opacity:1;stroke:none;stroke-width:3;marker:none;visibility:visible;display:inline;overflow:visible;filter:url(#filter10276-7);enable-background:accumulate;font-family:Sans;-inkscape-font-specification:Sans" />
      <path
         sodipodi:nodetypes="ccccc"
         inkscape:connector-curvature="0"
         id="path5592-9"
         d="m -3065.8152,-941.08819 0,5.5894 4.8316,5.5895 4.9683,-5.5894 0,-5.5895"
         style="fill:none;stroke:#000000;stroke-width:4.25196838;stroke-linecap:round;stroke-linejoin:round;stroke-miterlimit:4;stroke-opacity:1;stroke-dasharray:none;display:inline;filter:url(#filter10276-7)" />
    </g>
    <g
       id="g8907"
       transform="translate(0,11.384783)"
       style="stroke-width:4.2519685;stroke-miterlimit:4;stroke-dasharray:none">
      <rect
         y="-1096.5157"
         x="-3314.5908"
         height="1989.1816"
         width="669.18164"
         id="rect8295"
         style="color:#000000;fill:none;stroke:#000000;stroke-width:4.2519685;stroke-linecap:round;stroke-linejoin:round;stroke-miterlimit:4;stroke-opacity:1;stroke-dasharray:none;stroke-dashoffset:0;marker:none;visibility:visible;display:inline;overflow:visible;enable-background:accumulate" />
      <flowRoot
         transform="translate(-253.85937,4474.5932)"
         style="font-size:40px;font-style:normal;font-weight:normal;text-align:center;line-height:125%;letter-spacing:0px;word-spacing:0px;text-anchor:middle;fill:#000000;fill-opacity:1;stroke:none;display:inline;filter:url(#filter6521-3-8);font-family:Sans;stroke-width:4.2519685;stroke-miterlimit:4;stroke-dasharray:none"
         id="flowRoot6292-3-3-8"
         xml:space="preserve"><flowRegion
           id="flowRegion6294-7-2-2"><rect
             style="text-align:center;text-anchor:middle;stroke-width:4.2519685;stroke-miterlimit:4;stroke-dasharray:none"
             y="-3511.5356"
             x="-2929.8325"
             height="153.44514"
             width="401.36981"
             id="rect6296-2-1-66" /></flowRegion><flowPara
           style="font-size:64px;font-style:normal;font-variant:normal;font-weight:normal;font-stretch:normal;text-align:center;text-anchor:middle;font-family:Linux Biolinum G;-inkscape-font-specification:Linux Biolinum G;stroke-width:4.2519685;stroke-miterlimit:4;stroke-dasharray:none"
           id="flowPara6555-1-0">ROUTH / Editable</flowPara></flowRoot>    </g>
    <g
       id="g8900"
       transform="translate(0,8.0812994)"
       style="stroke-width:4.2519685;stroke-miterlimit:4;stroke-dasharray:none">
      <rect
         y="-1093.2123"
         x="-2512.4797"
         height="1989.1816"
         width="669.18164"
         id="rect8295-0"
         style="color:#000000;fill:none;stroke:#000000;stroke-width:4.2519685;stroke-linecap:round;stroke-linejoin:round;stroke-miterlimit:4;stroke-opacity:1;stroke-dasharray:none;stroke-dashoffset:0;marker:none;visibility:visible;display:inline;overflow:visible;enable-background:accumulate" />
      <flowRoot
         transform="translate(548.25178,4477.8967)"
         style="font-size:40px;font-style:normal;font-weight:normal;text-align:center;line-height:125%;letter-spacing:0px;word-spacing:0px;text-anchor:middle;fill:#000000;fill-opacity:1;stroke:none;display:inline;filter:url(#filter6521-3-8-3);font-family:Sans;stroke-width:4.2519685;stroke-miterlimit:4;stroke-dasharray:none"
         id="flowRoot6292-3-3-8-1"
         xml:space="preserve"><flowRegion
           id="flowRegion6294-7-2-2-2"><rect
             style="text-align:center;text-anchor:middle;stroke-width:4.2519685;stroke-miterlimit:4;stroke-dasharray:none"
             y="-3511.5356"
             x="-2929.8325"
             height="153.44514"
             width="401.36981"
             id="rect6296-2-1-66-5" /></flowRegion><flowPara
           style="font-size:64px;font-style:normal;font-variant:normal;font-weight:normal;font-stretch:normal;text-align:center;text-anchor:middle;font-family:Linux Biolinum G;-inkscape-font-specification:Linux Biolinum G;stroke-width:4.2519685;stroke-miterlimit:4;stroke-dasharray:none"
           id="flowPara6555-1-0-0">Laser</flowPara></flowRoot>    </g>
    <g
       id="g8893"
       style="stroke-width:4.2519685;stroke-miterlimit:4;stroke-dasharray:none">
      <rect
         y="-1085.131"
         x="-1704.3575"
         height="1989.1816"
         width="669.18164"
         id="rect8295-7"
         style="color:#000000;fill:none;stroke:#000000;stroke-width:4.2519685;stroke-linecap:round;stroke-linejoin:round;stroke-miterlimit:4;stroke-opacity:1;stroke-dasharray:none;stroke-dashoffset:0;marker:none;visibility:visible;display:inline;overflow:visible;enable-background:accumulate" />
      <flowRoot
         transform="translate(1356.3738,4485.978)"
         style="font-size:40px;font-style:normal;font-weight:normal;text-align:center;line-height:125%;letter-spacing:0px;word-spacing:0px;text-anchor:middle;fill:#000000;fill-opacity:1;stroke:none;display:inline;filter:url(#filter6521-3-8-9);font-family:Sans;stroke-width:4.2519685;stroke-miterlimit:4;stroke-dasharray:none"
         id="flowRoot6292-3-3-8-8"
         xml:space="preserve"><flowRegion
           id="flowRegion6294-7-2-2-3"><rect
             style="text-align:center;text-anchor:middle;stroke-width:4.2519685;stroke-miterlimit:4;stroke-dasharray:none"
             y="-3511.5356"
             x="-2929.8325"
             height="153.44514"
             width="401.36981"
             id="rect6296-2-1-66-51" /></flowRegion><flowPara
           style="font-size:64px;font-style:normal;font-variant:normal;font-weight:normal;font-stretch:normal;text-align:center;text-anchor:middle;font-family:Linux Biolinum G;-inkscape-font-specification:Linux Biolinum G;stroke-width:4.2519685;stroke-miterlimit:4;stroke-dasharray:none"
           id="flowPara6555-1-0-2">Vinyl</flowPara></flowRoot>    </g>
    <g
       id="g9227"
       transform="translate(76.6563,17.842272)"
       style="stroke-width:1.25;stroke-miterlimit:4;stroke-dasharray:none">
      <path
         id="rect6458-7-6"
         transform="translate(0,520.86482)"
         d="m -2336.4688,-1465.9688 -19.125,20.8438 0,73.0625 0,58.6875 48.4688,0 0,-20.0312 104.9375,0 0,20.0312 48.4687,0 0,-58.6875 0,-73.0625 -0.125,0 -16.9374,-20.8438 -165.6876,0 z m 29.3438,93.9063 104.9375,0 0,18.5937 -104.9375,0 0,-18.5937 z"
         style="fill:none;stroke:#ff0000;stroke-width:1.25;stroke-linecap:round;stroke-linejoin:round;stroke-miterlimit:4;stroke-opacity:1;stroke-dasharray:none;display:inline;filter:url(#filter10276-7-0)"
         inkscape:connector-curvature="0" />
      <path
         sodipodi:nodetypes="cccc"
         inkscape:connector-curvature="0"
         id="path4786-3-8"
         d="m -2338.8238,-924.24631 0,13.1699 167.4612,0 0,-13.1699"
         style="fill:none;stroke:#0000ff;stroke-width:1.25;stroke-linecap:round;stroke-linejoin:round;stroke-miterlimit:4;stroke-opacity:1;stroke-dasharray:none;display:inline;filter:url(#filter10276-7-0)" />
      <path
         sodipodi:nodetypes="cccc"
         inkscape:connector-curvature="0"
         id="path5556-5-9"
         d="m -2317.4441,-911.13937 0,8.7369 28.6909,0 0,-8.1514"
         style="fill:none;stroke:#0000ff;stroke-width:1.25;stroke-linecap:butt;stroke-linejoin:round;stroke-miterlimit:4;stroke-opacity:1;stroke-dasharray:none;display:inline;filter:url(#filter10276-7-0)" />
      <path
         sodipodi:nodetypes="cccccccccccccccccscccccsccccssccscccccc"
         inkscape:connector-curvature="0"
         id="path5558-9-8"
         d="m -2304.7118,-892.33066 c -0.071,0.18892 -0.3326,0.58772 -0.3236,0.78928 l 0,21.9374 0,1.4688 c -0.1816,0.034 -0.3537,0.079 -0.5313,0.125 l -5.3125,-12.9062 c -0.2145,-0.56628 -0.8007,-0.97013 -1.4062,-0.9688 -0.9776,0.022 -1.731,1.19591 -1.3438,2.0938 l 5.375,13.0312 c -0.1365,0.096 -0.2755,0.1775 -0.4062,0.2812 l -6.5313,-6.5312 c -0.308,-0.32848 -0.7699,-0.50615 -1.2187,-0.4688 -1.1284,0.11006 -1.7146,1.7676 -0.9063,2.5626 l 6.6875,6.6562 c -0.2212,0.3483 -0.4194,0.7134 -0.5938,1.0938 l -12.875,-3.9688 c -0.1889,-0.0708 -0.3922,-0.10287 -0.5937,-0.0938 -0.696,0.0485 -1.3136,0.64406 -1.3874,1.33783 -0.074,0.69377 0.4047,1.40592 1.0749,1.59977 l 13,4 0,0.0312 16.9688,0 11.3124,-3.4375 c 0.7527,-0.22907 1.2291,-1.12233 1,-1.875 -0.2291,-0.75267 -1.1223,-1.22907 -1.875,-1 l -11.25,3.4063 c -0.1721,-0.3756 -0.3447,-0.7494 -0.5624,-1.0938 l 8.3437,-8.3125 c 0.5563,-0.55632 0.5563,-1.56868 0,-2.125 -0.5563,-0.55632 -1.5687,-0.55632 -2.125,0 l -7.7187,7.7187 6.3124,-12.4062 c 0.4745,-0.70301 0.1905,-1.79492 -0.5663,-2.17779 -0.7568,-0.38287 -1.8046,0.0353 -2.0899,0.83399 l -6.5938,12.9063 c -0.3858,-0.1355 -0.7795,-0.2358 -1.1874,-0.3125 l 0,-1.4688 0,-21.9374 c 0.028,-0.32663 -0.057,-0.33815 -0.1342,-0.57626"
         style="font-size:medium;font-style:normal;font-variant:normal;font-weight:normal;font-stretch:normal;text-indent:0;text-align:start;text-decoration:none;line-height:normal;letter-spacing:normal;word-spacing:normal;text-transform:none;direction:ltr;block-progression:tb;writing-mode:lr-tb;text-anchor:start;baseline-shift:baseline;color:#000000;fill:none;stroke:#0000ff;stroke-width:1.25;stroke-miterlimit:4;stroke-opacity:1;stroke-dasharray:none;marker:none;visibility:visible;display:inline;overflow:visible;filter:url(#filter10276-7-0);enable-background:accumulate;font-family:Sans;-inkscape-font-specification:Sans" />
      <path
         transform="translate(0,520.86482)"
         inkscape:connector-curvature="0"
         id="path9036"
         d="m -2355.5938,-1445.125 201.875,0"
         style="fill:none;stroke:#0000ff;stroke-width:1.25;stroke-linecap:butt;stroke-linejoin:miter;stroke-miterlimit:4;stroke-opacity:1;stroke-dasharray:none" />
      <path
         transform="translate(0,520.86482)"
         inkscape:connector-curvature="0"
         id="path9038"
         d="m -2307.125,-1353.4688 0,20.0626"
         style="fill:none;stroke:#0000ff;stroke-width:1.25;stroke-linecap:butt;stroke-linejoin:miter;stroke-miterlimit:4;stroke-opacity:1;stroke-dasharray:none" />
      <path
         transform="translate(0,520.86482)"
         inkscape:connector-curvature="0"
         id="path9040"
         d="m -2202.1875,-1353.4688 0,20.0626"
         style="fill:none;stroke:#0000ff;stroke-width:1.25;stroke-linecap:butt;stroke-linejoin:miter;stroke-miterlimit:4;stroke-opacity:1;stroke-dasharray:none" />
      <path
         transform="translate(0,520.86482)"
         inkscape:connector-curvature="0"
         id="path9042"
         d="m -2202.1875,-1372.0625 48.4687,0"
         style="fill:none;stroke:#0000ff;stroke-width:1.25;stroke-linecap:butt;stroke-linejoin:miter;stroke-miterlimit:4;stroke-opacity:1;stroke-dasharray:none" />
      <path
         transform="translate(0,520.86482)"
         inkscape:connector-curvature="0"
         id="path9044"
         d="m -2307.125,-1372.0625 -48.4688,0"
         style="fill:none;stroke:#0000ff;stroke-width:1.25;stroke-linecap:butt;stroke-linejoin:miter;stroke-miterlimit:4;stroke-opacity:1;stroke-dasharray:none" />
      <path
         sodipodi:nodetypes="cccccc"
         inkscape:connector-curvature="0"
         id="path5592-9-4"
         d="m -2308.1967,-901.95156 0,5.5894 4.2893,4.99964 1.0632,0.004 4.4474,-5.00334 0,-5.5895"
         style="fill:none;stroke:#0000ff;stroke-width:1.25;stroke-linecap:round;stroke-linejoin:round;stroke-miterlimit:4;stroke-opacity:1;stroke-dasharray:none;display:inline;filter:url(#filter10276-7-0-1)" />
    </g>
    <path
       style="font-size:medium;font-style:normal;font-variant:normal;font-weight:normal;font-stretch:normal;text-indent:0;text-align:start;text-decoration:none;line-height:normal;letter-spacing:normal;word-spacing:normal;text-transform:none;direction:ltr;block-progression:tb;writing-mode:lr-tb;text-anchor:start;baseline-shift:baseline;color:#000000;fill:#000000;fill-opacity:1;stroke:none;stroke-width:4.25196838;marker:none;visibility:visible;display:inline;overflow:visible;filter:url(#filter10276-7-3);enable-background:accumulate;font-family:Sans;-inkscape-font-specification:Sans"
       d="m -1451.799,-929.38524 a 2.1261968,2.1261968 0 0 0 -1.3437,0.6875 l -18.9376,20.6875 a 2.1261968,2.1261968 0 0 0 -0.1562,0.1562 l -0.031,0.0313 a 2.1261968,2.1261968 0 0 0 -0.094,0.125 2.1261968,2.1261968 0 0 0 -0.031,0.0313 2.1261968,2.1261968 0 0 0 -0.094,0.125 2.1261968,2.1261968 0 0 0 -0.031,0.0624 2.1261968,2.1261968 0 0 0 -0.094,0.1876 2.1261968,2.1261968 0 0 0 -0.062,0.1562 2.1261968,2.1261968 0 0 0 -0.062,0.0938 2.1261968,2.1261968 0 0 0 -0.031,0.0937 2.1261968,2.1261968 0 0 0 0,0.0625 2.1261968,2.1261968 0 0 0 -0.031,0.1562 2.1261968,2.1261968 0 0 0 0,0.0313 2.1261968,2.1261968 0 0 0 -0.031,0.1563 2.1261968,2.1261968 0 0 0 0,0.0624 2.1261968,2.1261968 0 0 0 0,0.0938 2.1261968,2.1261968 0 0 0 0,0.125 l 0,72.7812 a 2.1261968,2.1261968 0 0 0 0,0.1563 2.1261968,2.1261968 0 0 0 0,0.2187 l 0,58.4376 a 2.1261968,2.1261968 0 0 0 2.125,2.125 l 48.4688,0 a 2.1261968,2.1261968 0 0 0 2.125,-2.125 l 0,-17.875 100.6875,0 0,17.875 0,2.125 2.125,0 48.4687,0 2.125,0 0,-2.125 0,-58.5 a 2.1261968,2.1261968 0 0 0 0,-0.1563 l 0,-2.1563 0,-70.9062 a 2.1261968,2.1261968 0 0 0 -0.9062,-1.75 2.1261968,2.1261968 0 0 0 -0.062,-0.0312 l -16.5625,-20.4376 a 2.1261968,2.1261968 0 0 0 -1.6562,-0.7812 l -165.6876,0 a 2.1261968,2.1261968 0 0 0 -0.2187,0 z m 1.1563,4.25 163.7187,0 13.5,16.625 -12.5313,0 a 2.1261968,2.1261968 0 0 0 -1.0312,0 l -166.5312,0 a 2.1261968,2.1261968 0 0 0 -0.6563,-0.0312 2.1261968,2.1261968 0 0 0 -0.2187,0.0312 l -11.5,0 15.25,-16.625 z m -17.9376,20.875 12.5313,0 0,11.0312 a 2.1261968,2.1261968 0 0 0 2.125,2.125 l 19.25,0 0,6.5626 a 2.1261968,2.1261968 0 0 0 2.125,2.125 l 7.125,0 0,3.9062 a 2.1261968,2.1261968 0 0 0 0.5,1.375 l 4.8437,5.5938 a 2.1261968,2.1261968 0 0 0 0.3126,0.2812 l 0,19.5312 0,1.4688 c -0.182,0.034 -0.3537,0.079 -0.5313,0.125 l -5.3125,-12.9062 a 1.50015,1.50015 0 0 0 -1.4062,-0.9688 1.50015,1.50015 0 0 0 -1.3438,2.0938 l 5.375,13.0312 c -0.1365,0.096 -0.2758,0.1779 -0.4062,0.2812 l -6.5313,-6.5312 a 1.50015,1.50015 0 0 0 -1.2187,-0.4688 1.50015,1.50015 0 0 0 -0.9063,2.5626 l 6.6875,6.6562 c -0.2212,0.3483 -0.4189,0.7131 -0.5938,1.0938 l -12.875,-3.9688 a 1.50015,1.50015 0 0 0 -0.5937,-0.0938 1.50015,1.50015 0 0 0 -0.3125,2.9376 l 13,4 0,0.0312 16.9688,0 11.3124,-3.4375 a 1.5026019,1.5026019 0 1 0 -0.875,-2.875 l -11.25,3.4063 c -0.1721,-0.376 -0.3451,-0.7494 -0.5624,-1.0938 l 8.3437,-8.3125 a 1.5026019,1.5026019 0 1 0 -2.125,-2.125 l -7.7187,7.7187 6.3124,-12.4062 a 1.50015,1.50015 0 1 0 -2.6562,-1.3438 l -6.5938,12.9063 c -0.3854,-0.1355 -0.7798,-0.2358 -1.1874,-0.3125 l 0,-1.4688 0,-19.9374 4.8437,-5.4376 a 2.1261968,2.1261968 0 0 0 0.5313,-1.4062 l 0,-3.9062 7.5312,0 a 2.1261968,2.1261968 0 0 0 2.125,-2.125 l 0,-6.5626 115.25,0 a 2.1261968,2.1261968 0 0 0 2.125,-2.125 l 0,-11.0312 13.4062,0 0,68.7812 -48.4687,0 -102.8125,0 -46.3438,0 0,-68.7812 z m 16.7813,0 163.1875,0 0,8.9062 -163.1875,0 0,-8.9062 z m 21.375,13.1562 24.4375,0 0,4.4376 -24.4375,0 0,-4.4376 z m 9.25,8.6876 5.5313,0 0,3.0937 -2.8126,3.1563 -2.7187,-3.125 0,-3.125 z m -47.4063,51.2187 44.2188,0 0,16.3125 a 2.1139539,2.1385107 0 0 0 0,0.125 l 0,20.0625 0,17.9063 -44.2188,0 0,-54.4063 z m 48.4688,0 100.6875,0 0,14.3125 -100.6875,0 0,-14.3125 z m 104.9375,0 44.2187,0 0,54.4063 -44.2187,0 0,-54.4063 z m -104.9375,18.5625 100.1562,0 0,15.8125 -100.1562,0 0,-15.8125 z"
       id="rect6458-7-8"
       inkscape:connector-curvature="0" />
    <g
       id="g9493"
       transform="translate(43.931847,21.152039)">
      <rect
         style="fill:#ffffff;fill-opacity:1;stroke:#000000;stroke-width:4.25196838;stroke-linecap:round;stroke-linejoin:round;stroke-miterlimit:4;stroke-opacity:1;stroke-dasharray:none;display:inline;filter:url(#filter10276-3)"
         id="rect6054-4-6-0"
         width="23.020815"
         height="90.060059"
         x="-3120.2495"
         y="-555.57288" />
      <rect
         style="fill:#ffffff;fill-opacity:1;stroke:#000000;stroke-width:4.25196838;stroke-linecap:round;stroke-linejoin:round;stroke-miterlimit:4;stroke-opacity:1;stroke-dasharray:none;display:inline;filter:url(#filter10276-3)"
         id="rect6054-5-4-8-7"
         width="22.999462"
         height="90.060059"
         x="-2950.6082"
         y="-555.57288" />
      <path
         style="color:#000000;fill:none;stroke:#000000;stroke-width:4.25196838;stroke-linecap:round;stroke-linejoin:round;stroke-miterlimit:4;stroke-opacity:1;stroke-dasharray:none;stroke-dashoffset:0;marker:none;visibility:visible;display:inline;overflow:visible;filter:url(#filter10276-3);enable-background:accumulate"
         d="m -3120.25,-579.3227 0,23.75 83.3125,0 0,-23.75 -83.3125,0 z m 109.3438,0 0,23.75 83.3124,0 0,-23.75 -83.3124,0 z"
         id="rect5959-3-2-5-3"
         inkscape:connector-curvature="0" />
      <rect
         style="fill:#ffffff;fill-opacity:1;stroke:#000000;stroke-width:4.25196838;stroke-linecap:round;stroke-linejoin:round;stroke-miterlimit:4;stroke-opacity:1;stroke-dasharray:none;display:inline;filter:url(#filter10276-3)"
         id="rect6052-9-7-4"
         width="74.180473"
         height="140.29414"
         x="-3061.022"
         y="-637.15686" />
      <rect
         y="-465.51282"
         x="-3122.8518"
         height="23.213625"
         width="197.83992"
         id="rect5961-4-3-6-9"
         style="fill:#ffffff;fill-opacity:1;stroke:#000000;stroke-width:4.25196838;stroke-linecap:round;stroke-linejoin:round;stroke-miterlimit:4;stroke-opacity:1;stroke-dasharray:none;display:inline;filter:url(#filter10276-3)" />
      <rect
         y="-442.29895"
         x="-3108.3352"
         height="94.313164"
         width="168.80661"
         id="rect5963-4-0-1-6"
         style="fill:none;stroke:#000000;stroke-width:4.25196838;stroke-linecap:round;stroke-linejoin:round;stroke-miterlimit:4;stroke-opacity:1;stroke-dasharray:none;display:inline;filter:url(#filter10276-3)" />
      <path
         inkscape:connector-curvature="0"
         id="path5965-0-7-8-5"
         d="m -3023.9317,-481.7362 0,-10.8874"
         style="fill:none;stroke:#000000;stroke-width:4.25196838;stroke-linecap:round;stroke-linejoin:miter;stroke-miterlimit:4;stroke-opacity:1;stroke-dasharray:none;display:inline;filter:url(#filter10276-3)"
         sodipodi:nodetypes="cc" />
      <rect
         y="-518.14709"
         x="-3033.053"
         height="25.523523"
         width="18.242594"
         id="rect5955-2-7-9-1"
         style="fill:#ffffff;fill-opacity:1;stroke:#000000;stroke-width:4.25196838;stroke-linecap:round;stroke-linejoin:round;stroke-miterlimit:4;stroke-opacity:1;stroke-dasharray:none;display:inline;filter:url(#filter10276-3)" />
      <rect
         y="-580.81995"
         x="-3036.9434"
         height="62.672977"
         width="26.023014"
         id="rect5957-9-8-2-0"
         style="fill:none;stroke:#000000;stroke-width:4.25196838;stroke-linecap:round;stroke-linejoin:round;stroke-miterlimit:4;stroke-opacity:1;stroke-dasharray:none;display:inline;filter:url(#filter10276-3)" />
    </g>
    <path
       inkscape:connector-curvature="0"
       id="rect6054-4-6-0-0"
       d="m -1407.0636,-613.85502 c -1.0485,0.093 -1.9411,1.0725 -1.9375,2.125 l 0,55.7188 -57.0938,0 -0.2187,0 c -1.0377,0.1079 -1.9108,1.0818 -1.9063,2.125 l 0,23.5938 0,0.1562 0,0.2188 0,87.7187 -0.4687,0 a 2.1261968,2.1261968 0 0 0 -0.2187,0 2.1261968,2.1261968 0 0 0 -1.9063,2.125 l 0,23.1875 a 2.1261968,2.1261968 0 0 0 2.125,2.125 l 12.375,0 0,92.1875 a 2.1261968,2.1261968 0 0 0 2.125,2.125 l 168.8125,0 a 2.1261968,2.1261968 0 0 0 2.125,-2.125 l 0,-92.1875 12.4062,0 a 2.1261968,2.1261968 0 0 0 2.125,-2.125 l 0,-23.1875 a 2.1261968,2.1261968 0 0 0 -2.125,-2.125 l -0.4687,0 0,-87.9375 0,-23.75 c -6e-4,-1.1125 -1.0125,-2.1244 -2.125,-2.125 l -57.125,0 0,-55.7188 c -6e-4,-1.1123 -1.0125,-2.1238 -2.125,-2.125 l -74.1875,0 -0.1875,0 z m 2.3125,4.25 69.9375,0 0,55.5626 0,23.9062 0,0.2188 0,56.3437 -23.7187,0 0,-17.0313 1.7812,0 a 2.1261968,2.1261968 0 0 0 2.125,-2.125 l 0,-62.6562 a 2.1261968,2.1261968 0 0 0 -2.125,-2.125 l -26.0312,0 a 2.1261968,2.1261968 0 0 0 -0.2188,0 2.1261968,2.1261968 0 0 0 -1.9062,2.125 l 0,62.6562 a 2.1261968,2.1261968 0 0 0 2.125,2.125 l 1.75,0 0,17.0313 -23.7188,0 0,-56.4063 0,-0.1562 0,-23.75 0,-0.2188 0,-55.5 z m 24.0938,56.3438 21.7812,0 0,58.4062 -1.625,0 -18.625,0 -1.5312,0 0,-58.4062 z m -83.3126,1.5 54.9688,0 0,19.5 -33.9375,0 -0.125,0 -20.9063,0 0,-19.5 z m 133.4063,0 55,0 0,19.5 -21.0937,0 -33.9063,0 0,-19.5 z m -133.4063,23.75 18.7813,0 0,85.8125 -18.7813,0 0,-85.8125 z m 23.0313,0 31.9375,0 0,56.5625 c 6e-4,1.1125 1.0125,2.1244 2.125,2.125 l 25.8438,0 0,2.125 a 2.1261968,2.1261968 0 0 0 2.125,2.125 l 7,0 0,8.75 a 2.1261968,2.1261968 0 1 0 4.25,0 l 0,-8.75 7,0 a 2.1261968,2.1261968 0 0 0 2.125,-2.125 l 0,-2.125 25.8437,0 c 1.1125,-6e-4 2.1244,-1.0125 2.125,-2.125 l 0,-56.5625 32,0 0,85.8125 -142.375,0 0,-85.8125 z m 146.625,0 18.7187,0 0,85.8125 -18.7187,0 0,-85.8125 z m -82.4687,37.4062 14,0 0,17.0313 0,4.25 -6.5,0 a 2.1261968,2.1261968 0 0 0 -0.75,-0.031 2.1261968,2.1261968 0 0 0 -0.2188,0.031 l -6.5312,0 0,-4.25 0,-17.0313 z m -89.7813,52.6563 0.4687,0 23.0313,0 146.625,0 23,0 0.4687,0 0,18.9375 -12.2812,0 -169.1562,0 -12.1563,0 0,-18.9375 z m 14.5,23.1875 164.5625,0 0,90.0625 -164.5625,0 0,-90.0625 z"
       style="font-size:medium;font-style:normal;font-variant:normal;font-weight:normal;font-stretch:normal;text-indent:0;text-align:start;text-decoration:none;line-height:normal;letter-spacing:normal;word-spacing:normal;text-transform:none;direction:ltr;block-progression:tb;writing-mode:lr-tb;text-anchor:start;baseline-shift:baseline;color:#000000;fill:#000000;fill-opacity:1;fill-rule:nonzero;stroke:none;stroke-width:4.25196838;marker:none;visibility:visible;display:inline;overflow:visible;filter:url(#filter10276-3-1);enable-background:accumulate;font-family:Sans;-inkscape-font-specification:Sans" />
    <g
       id="g4742"
       transform="translate(16.2969,0.19818115)">
      <path
         style="fill:#ffffff;fill-opacity:1;stroke:#ff0000;stroke-width:1.25;stroke-linecap:round;stroke-linejoin:round;stroke-miterlimit:4;stroke-opacity:1;stroke-dasharray:none;display:inline;filter:url(#filter10276-3-5)"
         d="m -2231.375,-618.5102 0,57.8438 -59.2188,0 0,23.75 0,90.06245 -2.625,0 0,23.21875 2.625,0 11.9063,0 0,94.3125 168.8125,0 0,-94.3125 14.5,0 0,-23.21875 -2.5938,0 0,-90.06245 0.031,0 0,-23.75 -59.25,0 0,-57.8438 -74.1875,0 z m -36.2188,81.5938 36.2188,0 0,58.7187 27.9688,0 0,4.21875 7,0 c -3e-4,0.0105 10e-5,0.0207 0,0.0312 l 0,10.875 c -0.038,1.1364 0.9879,2.1875 2.125,2.1875 1.137,0 2.1631,-1.0511 2.125,-2.1875 l 0,-10.875 c 0,-0.0105 0,-0.0209 0,-0.0312 l 7,0 0,-4.21875 27.9687,0 0,-58.7187 36.2187,0 0,90.06245 -146.625,0 0,-90.06245 z"
         id="rect6054-4-6-0-3"
         inkscape:connector-curvature="0" />
      <rect
         y="-562.16028"
         x="-2207.2974"
         height="62.672977"
         width="26.023014"
         id="rect5957-9-8-2-0-8"
         style="fill:none;stroke:#0000ff;stroke-width:1.25;stroke-linecap:round;stroke-linejoin:round;stroke-miterlimit:4;stroke-opacity:1;stroke-dasharray:none;display:inline;filter:url(#filter10276-3-5)" />
      <path
         style="fill:none;stroke:#0000ff;stroke-width:1.25;stroke-linecap:butt;stroke-linejoin:miter;stroke-miterlimit:4;stroke-opacity:1;stroke-dasharray:none;filter:url(#filter10276-3)"
         d="m -2278.6875,-423.63522 168.8125,0"
         id="path9438"
         inkscape:connector-curvature="0" />
      <path
         style="fill:none;stroke:#0000ff;stroke-width:1.25;stroke-linecap:butt;stroke-linejoin:miter;stroke-miterlimit:4;stroke-opacity:1;stroke-dasharray:none;filter:url(#filter10276-3)"
         d="m -2097.9688,-446.85397 -23,0"
         id="path9440"
         inkscape:connector-curvature="0" />
      <path
         style="fill:none;stroke:#0000ff;stroke-width:1.25;stroke-linecap:butt;stroke-linejoin:miter;stroke-miterlimit:4;stroke-opacity:1;stroke-dasharray:none;filter:url(#filter10276-3)"
         d="m -2267.5938,-446.85397 -23,0"
         id="path9442"
         inkscape:connector-curvature="0" />
      <path
         style="fill:none;stroke:#0000ff;stroke-width:1.25;stroke-linecap:butt;stroke-linejoin:miter;stroke-miterlimit:4;stroke-opacity:1;stroke-dasharray:none;filter:url(#filter10276-3)"
         d="m -2267.5938,-536.9164 -23,0"
         id="path9444"
         inkscape:connector-curvature="0" />
      <path
         style="fill:none;stroke:#0000ff;stroke-width:1.25;stroke-linecap:butt;stroke-linejoin:miter;stroke-miterlimit:4;stroke-opacity:1;stroke-dasharray:none;filter:url(#filter10276-3)"
         d="m -2231.375,-536.9164 0,-23.75"
         id="path9446"
         inkscape:connector-curvature="0" />
      <path
         style="fill:none;stroke:#0000ff;stroke-width:1.25;stroke-linecap:butt;stroke-linejoin:miter;stroke-miterlimit:4;stroke-opacity:1;stroke-dasharray:none;filter:url(#filter10276-3)"
         d="m -2157.1875,-560.6664 0,23.75"
         id="path9448"
         inkscape:connector-curvature="0" />
      <path
         style="fill:none;stroke:#0000ff;stroke-width:1.25;stroke-linecap:butt;stroke-linejoin:miter;stroke-miterlimit:4;stroke-opacity:1;stroke-dasharray:none;filter:url(#filter10276-3)"
         d="m -2203.4062,-478.19772 0,-21.28958"
         id="path9450"
         inkscape:connector-curvature="0" />
      <path
         style="fill:none;stroke:#0000ff;stroke-width:1.25;stroke-linecap:butt;stroke-linejoin:miter;stroke-miterlimit:4;stroke-opacity:1;stroke-dasharray:none;filter:url(#filter10276-3)"
         d="m -2185.1562,-478.19772 0,-21.28958"
         id="path9452"
         inkscape:connector-curvature="0" />
      <path
         style="fill:none;stroke:#0000ff;stroke-width:1.25;stroke-linecap:butt;stroke-linejoin:miter;stroke-miterlimit:4;stroke-opacity:1;stroke-dasharray:none"
         d="m -2196.4062,-473.97895 4.25,0"
         id="path4119"
         inkscape:connector-curvature="0" />
    </g>
    <g
       id="g5050"
       transform="translate(63.387611,-28.782166)">
      <rect
         transform="matrix(0,-1,1,0,-814.12588,4244.1421)"
         y="-2173.8496"
         x="4338.1958"
         height="25.782116"
         width="46.620941"
         id="rect5959-5-1"
         style="fill:none;stroke:#000000;stroke-width:4.25196838;stroke-linecap:round;stroke-linejoin:round;stroke-miterlimit:4;stroke-opacity:1;stroke-dasharray:none;display:inline;filter:url(#filter10276-1)" />
      <rect
         transform="matrix(0,-1,1,0,-814.12588,4244.1421)"
         y="-2148.0674"
         x="4347.0737"
         height="26.33819"
         width="28.864473"
         id="rect5963-44-4"
         style="fill:none;stroke:#000000;stroke-width:4.25196838;stroke-linecap:round;stroke-linejoin:round;stroke-miterlimit:4;stroke-opacity:1;stroke-dasharray:none;display:inline;filter:url(#filter10276-1)" />
      <path
         inkscape:connector-curvature="0"
         id="path5965-4-2"
         d="m -2987.9756,-117.3641 -12.6366,0"
         style="fill:none;stroke:#000000;stroke-width:4.25196838;stroke-linecap:round;stroke-linejoin:miter;stroke-miterlimit:4;stroke-opacity:1;stroke-dasharray:none;display:inline;filter:url(#filter10276-1)" />
      <rect
         y="-80.640617"
         x="-3168.6638"
         height="25.463001"
         width="250.55241"
         id="rect6280-3"
         style="fill:none;stroke:#000000;stroke-width:4.25196838;stroke-linecap:round;stroke-linejoin:round;stroke-miterlimit:4;stroke-opacity:1;stroke-dasharray:none;filter:url(#filter10276-1)" />
      <rect
         y="-133.69237"
         x="-2935.8552"
         height="53.051949"
         width="17.743824"
         id="rect6282-2"
         style="fill:none;stroke:#000000;stroke-width:4.25196838;stroke-linecap:round;stroke-linejoin:round;stroke-miterlimit:4;stroke-opacity:1;stroke-dasharray:none;filter:url(#filter10276-1)" />
      <path
         sodipodi:nodetypes="ccccc"
         inkscape:connector-curvature="0"
         id="rect6288-2"
         d="m -3168.6638,-55.1774 16.8374,0 -0.2385,73.7687 -16.8374,0 z"
         style="fill:none;stroke:#000000;stroke-width:4.25196838;stroke-linecap:round;stroke-linejoin:round;stroke-miterlimit:4;stroke-opacity:1;stroke-dasharray:none;filter:url(#filter10276-1)" />
      <rect
         y="-55.177723"
         x="-2935.2649"
         height="73.846313"
         width="17.153397"
         id="rect6290-1"
         style="fill:none;stroke:#000000;stroke-width:4.25196838;stroke-linecap:round;stroke-linejoin:round;stroke-miterlimit:4;stroke-opacity:1;stroke-dasharray:none;filter:url(#filter10276-1)" />
      <rect
         style="fill:none;stroke:#000000;stroke-width:4.25196838;stroke-linejoin:round;stroke-miterlimit:4;stroke-opacity:1;stroke-dasharray:none;display:inline;filter:url(#filter10276-1)"
         id="rect5953-8-2"
         width="73.447487"
         height="36.858658"
         x="3636.5256"
         y="-2818.917"
         transform="matrix(0,-1,1,0,-349.74679,3555.8852)" />
      <rect
         style="fill:none;stroke:#000000;stroke-width:4.25196838;stroke-linecap:round;stroke-linejoin:round;stroke-miterlimit:4;stroke-opacity:1;stroke-dasharray:none;display:inline;filter:url(#filter10276-1)"
         id="rect5955-1-7"
         width="38.634651"
         height="24.788319"
         x="3653.9321"
         y="-2782.0583"
         transform="matrix(0,-1,1,0,-349.74679,3555.8852)" />
      <rect
         style="fill:none;stroke:#000000;stroke-width:4.25196838;stroke-linecap:round;stroke-linejoin:round;stroke-miterlimit:4;stroke-opacity:1;stroke-dasharray:none;display:inline;filter:url(#filter10276-1)"
         id="rect5957-2-6"
         width="20.364538"
         height="13.631777"
         x="3663.0671"
         y="-2757.27"
         transform="matrix(0,-1,1,0,-349.74679,3555.8852)" />
      <path
         sodipodi:nodetypes="sccccccccscs"
         inkscape:connector-curvature="0"
         d="m -3053.1391,-124.715 c -2.8922,-0.2367 -8.4042,3.1061 -8.516,3.2769 -0.5116,-1.5361 -5.8632,-5.2525 -9.1248,0.8385 -5.6012,-0.9335 -14.4699,-1.4781 -14.4699,-1.4781 l -6.2237,-6.0907 0,21.6084 6.2237,-6.0907 c 0,0 8.8687,-0.5446 14.4699,-1.4781 3.2616,6.091 8.6132,2.3745 9.1248,0.8385 0.1118,0.1708 5.6238,3.5136 8.516,3.2768 1.8387,-0.1505 6.4084,-3.3545 6.6598,-7.3507 -0.2514,-3.9961 -4.8211,-7.2002 -6.6598,-7.3508 z"
         style="fill:#000000;fill-opacity:1;stroke:none;display:inline;filter:url(#filter10276-1)"
         id="path6412-2-6" />
    </g>
    <path
       inkscape:connector-curvature="0"
       id="rect5959-5-1-3"
       d="m -1495.1277,-171.8532 a 2.1261968,2.1261968 0 0 0 -1.9062,2.125 l 0,73.093745 a 2.1261968,2.1261968 0 0 0 -0.031,0.375 l 0,0.1875 0,25.125 a 2.1261968,2.1261968 0 0 0 0,0.15625 2.1261968,2.1261968 0 0 0 0,0.21875 l -0.2188,73.5312504 a 2.1261968,2.1261968 0 0 0 2.125,2.125 l 16.8125,0 a 2.1261968,2.1261968 0 0 0 2.125,-2.09375 l 0.25,-71.6562504 212.3125,0 0,71.7187504 a 2.1261968,2.1261968 0 0 0 2.125,2.125 l 17.1562,0 a 2.1261968,2.1261968 0 0 0 2.125,-2.125 l 0,-73.6875004 a 2.1261968,2.1261968 0 0 0 0,-0.15625 2.1261968,2.1261968 0 0 0 0,-0.21875 l 0,-25.09375 a 2.1261968,2.1261968 0 0 0 0,-0.15625 2.1261968,2.1261968 0 0 0 0,-0.21875 l 0,-52.843745 a 2.1261968,2.1261968 0 0 0 -2.125,-2.125 l -17.75,0 a 2.1261968,2.1261968 0 0 0 -2.125,1.875 l -22.0937,0 0,-6.75 a 2.1261968,2.1261968 0 0 0 -2.125,-2.125 l -25.7813,0 a 2.1261968,2.1261968 0 0 0 -0.2187,0 2.1261968,2.1261968 0 0 0 -1.9063,2.125 l 0,21.21875 -10.5,0 a 2.1261968,2.1261968 0 0 0 -0.2187,0 2.1278129,2.1278129 0 1 0 0.2187,4.25 l 10.5,0 0,21.15625 a 2.1261968,2.1261968 0 0 0 0,0.21875 2.1261968,2.1261968 0 0 0 2.125,1.90625 l 25.7813,0 a 2.1261968,2.1261968 0 0 0 2.125,-2.125 l 0,-6.75 22.0937,0 0,18.062495 -191.6874,0 0,-13.187495 22.6562,0 a 2.1261968,2.1261968 0 0 0 2.125,-2.125 l 0,-7 11.5312,0 a 2.1261968,2.1261968 0 0 0 2.0938,-1.71875 l 6,-5.875 c 0,0 8.8675,-0.53525 14.4688,-1.46875 3.2616,6.091 8.6133,2.37975 9.125,0.84375 0.1117,0.1708 5.639,3.51805 8.5312,3.28125 1.8387,-0.1505 6.4049,-3.3788 6.6562,-7.375 -0.2513,-3.9961 -4.8175,-7.19315 -6.6562,-7.34375 -2.8922,-0.2367 -8.4195,3.11045 -8.5312,3.28125 -0.5117,-1.5361 -5.8634,-5.24725 -9.125,0.84375 -5.6012,-0.9335 -14.4688,-1.5 -14.4688,-1.5 l -6,-5.84375 a 2.1261968,2.1261968 0 0 0 -2.0938,-1.75 l -11.5312,0 0,-7 a 2.1261968,2.1261968 0 0 0 -2.125,-2.125 l -22.6562,0 0,-15.28125 a 2.1261968,2.1261968 0 0 0 -2.125,-2.125 l -36.8438,0 a 2.1261968,2.1261968 0 0 0 -0.2188,0 z m 2.3438,4.25 32.5938,0 0,14.9375 a 2.1261968,2.1261968 0 0 0 0,0.34375 l 0,38.625 a 2.1261968,2.1261968 0 0 0 0,0.21875 l 0,15.062495 -32.5938,0 0,-69.187495 z m 180.6562,13.40625 21.5313,0 0,6.75 0,28.875 a 2.1261968,2.1261968 0 0 0 0,0.1875 l 0,6.5625 -21.5313,0 0,-20.625 a 2.1261968,2.1261968 0 0 0 0,-1.0625 l 0,-20.6875 z m -143.8124,4 20.5312,0 0,6.65625 a 2.1261968,2.1261968 0 0 0 0,0.34375 l 0,20.375 a 2.1261968,2.1261968 0 0 0 0,0.21875 l 0,6.78125 -20.5312,0 0,-34.375 z m 195.9374,3 13.5,0 0,48.812495 -13.5,0 0,-20.031245 a 2.1261968,2.1261968 0 0 0 0,-0.15625 l 0,-28.625 z m -26.3437,1.875 22.0937,0 0,24.625 -22.0937,0 0,-24.625 z m -144.8125,4.25 9.4062,0 0,16.125 -9.4062,0 0,-16.125 z m -61.6562,46.937495 230.5312,0 15.7812,0 0,21.21875 -15.25,0 -216.1874,0 -0.1563,0 -14.7187,0 0,-21.21875 z m 0,25.46875 12.5937,0 -0.25,69.50000041 -12.5625,0 0.2188,-69.50000041 z m 233.4062,0 12.9062,0 0,69.59375041 -12.9062,0 0,-69.59375041 z"
       style="font-size:medium;font-style:normal;font-variant:normal;font-weight:normal;font-stretch:normal;text-indent:0;text-align:start;text-decoration:none;line-height:normal;letter-spacing:normal;word-spacing:normal;text-transform:none;direction:ltr;block-progression:tb;writing-mode:lr-tb;text-anchor:start;baseline-shift:baseline;color:#000000;fill:#000000;fill-opacity:1;stroke:none;stroke-width:4.25196838;marker:none;visibility:visible;display:inline;overflow:visible;filter:url(#filter10276-1-1);enable-background:accumulate;font-family:Sans;-inkscape-font-specification:Sans" />
    <g
       id="g4778"
       transform="translate(-9.8906,-20.784607)">
      <path
         style="fill:none;stroke:#ff0000;stroke-width:1.25;stroke-linecap:round;stroke-linejoin:round;stroke-miterlimit:4;stroke-opacity:1;stroke-dasharray:none;display:inline;filter:url(#filter10276-1-8)"
         d="m -2293.2812,-162.06225 0,73.4375 0,25.46875 -0.2188,73.78125 16.8125,0 0.25,-73.78125 216.5625,0 0,73.84375 17.1562,0 0,-73.84375 0,-25.46875 0,-53.03125 -17.75,0 0,1.875 -26.3437,0 0,-8.875 -25.7813,0 0,21.21875 -12.625,0 a 2.1261968,2.1261968 0 0 0 -0.2187,0 2.1278117,2.1278117 0 0 0 0.2187,4.25 l 12.625,0 0,21.15625 25.7813,0 0,-8.875 26.3437,0 0,22.28125 -195.9374,0 0,-17.40625 24.7812,0 0,-9.125 13.4062,0 0,0.625 8.3438,-6.09375 c 0,0 8.8675,-0.53525 14.4688,-1.46875 3.2615,6.091 8.6133,2.37975 9.125,0.84375 0.1118,0.1708 5.639,3.51805 8.5312,3.28125 1.8387,-0.1505 6.4049,-3.3788 6.6562,-7.375 -0.2514,-3.9961 -4.8175,-7.19315 -6.6562,-7.34375 -2.8922,-0.2367 -8.4194,3.11045 -8.5312,3.28125 -0.5117,-1.5361 -5.8635,-5.24725 -9.125,0.84375 -5.6013,-0.9335 -14.4688,-1.5 -14.4688,-1.5 l -8.3438,-6.0625 0,0.59375 -13.4062,0 0,-9.125 -24.7812,0 0,-17.40625 -36.875,0 z"
         id="rect5959-5-1-7"
         inkscape:connector-curvature="0" />
      <path
         style="fill:none;stroke:#0000ff;stroke-width:1.25;stroke-linecap:butt;stroke-linejoin:miter;stroke-miterlimit:4;stroke-opacity:1;stroke-dasharray:none;filter:url(#filter10276-1)"
         d="m -2060.4688,-139.78102 0,28.875"
         id="path4336"
         inkscape:connector-curvature="0" />
      <path
         style="fill:none;stroke:#0000ff;stroke-width:1.25;stroke-linecap:butt;stroke-linejoin:miter;stroke-miterlimit:4;stroke-opacity:1;stroke-dasharray:none;filter:url(#filter10276-1)"
         d="m -2086.8125,-139.78102 0,28.875"
         id="path4338"
         inkscape:connector-curvature="0" />
      <path
         style="fill:none;stroke:#0000ff;stroke-width:1.25;stroke-linecap:butt;stroke-linejoin:miter;stroke-miterlimit:4;stroke-opacity:1;stroke-dasharray:none;filter:url(#filter10276-1)"
         d="m -2112.5938,-127.43727 0,4.25"
         id="path4340"
         inkscape:connector-curvature="0" />
      <path
         style="fill:none;stroke:#0000ff;stroke-width:1.25;stroke-linecap:butt;stroke-linejoin:miter;stroke-miterlimit:4;stroke-opacity:1;stroke-dasharray:none;filter:url(#filter10276-1)"
         d="m -2060.4688,-88.62477 17.75,0"
         id="path4342"
         inkscape:connector-curvature="0" />
      <path
         style="fill:none;stroke:#0000ff;stroke-width:1.25;stroke-linecap:butt;stroke-linejoin:miter;stroke-miterlimit:4;stroke-opacity:1;stroke-dasharray:none;filter:url(#filter10276-1)"
         d="m -2231.625,-135.53102 0,20.375"
         id="path4344"
         inkscape:connector-curvature="0" />
      <path
         style="fill:none;stroke:#0000ff;stroke-width:1.25;stroke-linecap:butt;stroke-linejoin:miter;stroke-miterlimit:4;stroke-opacity:1;stroke-dasharray:none;filter:url(#filter10276-1)"
         d="m -2256.4062,-144.65602 0,38.625"
         id="path4346"
         inkscape:connector-curvature="0" />
      <path
         style="fill:none;stroke:#0000ff;stroke-width:1.25;stroke-linecap:butt;stroke-linejoin:miter;stroke-miterlimit:4;stroke-opacity:1;stroke-dasharray:none;filter:url(#filter10276-1)"
         d="m -2256.4062,-88.62477 -36.875,0"
         id="path4348"
         inkscape:connector-curvature="0" />
      <path
         style="fill:none;stroke:#0000ff;stroke-width:1.25;stroke-linecap:butt;stroke-linejoin:miter;stroke-miterlimit:4;stroke-opacity:1;stroke-dasharray:none;filter:url(#filter10276-1)"
         d="m -2276.4375,-63.15602 -16.8437,0"
         id="path4350"
         inkscape:connector-curvature="0" />
      <path
         style="fill:none;stroke:#0000ff;stroke-width:1.25;stroke-linecap:butt;stroke-linejoin:miter;stroke-miterlimit:4;stroke-opacity:1;stroke-dasharray:none;filter:url(#filter10276-1)"
         d="m -2059.875,-63.15602 17.1562,0"
         id="path4352"
         inkscape:connector-curvature="0" />
      <path
         style="fill:none;stroke:#0000ff;stroke-width:1.25;stroke-linecap:butt;stroke-linejoin:miter;stroke-miterlimit:4;stroke-opacity:1;stroke-dasharray:none;filter:url(#filter10276-1)"
         d="m -2218.2188,-135.53102 0,20.375"
         id="path4355"
         inkscape:connector-curvature="0" />
    </g>
    <g
       id="g5063"
       transform="translate(-48.069637,2.2408447)">
      <path
         style="color:#000000;fill:none;stroke:#000000;stroke-width:5.42069483;stroke-linecap:round;stroke-linejoin:round;stroke-miterlimit:4;stroke-opacity:1;stroke-dasharray:none;stroke-dashoffset:0;marker:none;visibility:visible;display:inline;overflow:visible;filter:url(#filter10276-79);enable-background:accumulate"
         d="m -1368.6875,-5123.75 0,190.2188 22.3437,0 0,-190.2188 133.75,0 0,-22.375 -133.75,0 c -13.4656,0 -22.3437,4.437 -22.3437,22.375 z"
         id="rect6054-4-7-9"
         inkscape:connector-curvature="0"
         sodipodi:nodetypes="cccccccc"
         transform="matrix(0.78439549,0,0,0.78439549,-1928.5188,4231.7522)" />
      <rect
         style="color:#000000;fill:none;stroke:#000000;stroke-width:5.42069483;stroke-linecap:round;stroke-linejoin:round;stroke-miterlimit:4;stroke-opacity:1;stroke-dasharray:none;stroke-dashoffset:0;marker:none;visibility:visible;display:inline;overflow:visible;filter:url(#filter10276-79);enable-background:accumulate"
         id="rect6054-4-7-2-8"
         width="22.36458"
         height="125.0142"
         x="-1522.1273"
         y="-4225.4888"
         transform="matrix(0,-0.78439549,0.78439549,0,329.8696,-832.0372)" />
      <path
         style="color:#000000;fill:none;stroke:#000000;stroke-width:5.42069483;stroke-linecap:round;stroke-linejoin:round;stroke-miterlimit:4;stroke-opacity:1;stroke-dasharray:none;stroke-dashoffset:0;marker:none;visibility:visible;display:inline;overflow:visible;filter:url(#filter10276-79);enable-background:accumulate"
         d="m -1335.8042,-5123.75 17.5199,49.1397 76.1764,0 16.4557,-49.1397"
         id="path11085-6"
         inkscape:connector-curvature="0"
         sodipodi:nodetypes="cccc"
         transform="matrix(0.78439549,0,0,0.78439549,-1928.5188,4231.7522)" />
      <rect
         style="color:#000000;fill:none;stroke:#000000;stroke-width:5.42069483;stroke-linecap:round;stroke-linejoin:round;stroke-miterlimit:4;stroke-opacity:1;stroke-dasharray:none;stroke-dashoffset:0;marker:none;visibility:visible;display:inline;overflow:visible;filter:url(#filter10276-79);enable-background:accumulate"
         id="rect11104-5"
         width="96.767563"
         height="73.990791"
         x="-1330.3364"
         y="-5029.8877"
         transform="matrix(0.78439549,0,0,0.78439549,-1928.5188,4231.7522)" />
      <path
         style="color:#000000;fill:none;stroke:#000000;stroke-width:5.42069483;stroke-linecap:round;stroke-linejoin:round;stroke-miterlimit:4;stroke-opacity:1;stroke-dasharray:none;stroke-dashoffset:0;marker:none;visibility:visible;display:inline;overflow:visible;filter:url(#filter10276-79);enable-background:accumulate"
         d="m -1330.3364,-5052.1377 0,22.25 121.8124,0 0,50.9375 19.3126,0 0.5937,0 0,-50.9375 c 0,-15.5902 -8.3465,-22.25 -19.9063,-22.25 z"
         id="rect11106-0"
         inkscape:connector-curvature="0"
         sodipodi:nodetypes="ccccccccc"
         transform="matrix(0.78439549,0,0,0.78439549,-1928.5188,4231.7522)" />
      <path
         style="color:#000000;fill:none;stroke:#000000;stroke-width:5.42069483;stroke-linecap:round;stroke-linejoin:round;stroke-miterlimit:4;stroke-opacity:1;stroke-dasharray:none;stroke-dashoffset:0;marker:none;visibility:visible;display:inline;overflow:visible;filter:url(#filter10276-79);enable-background:accumulate"
         d="m -1330.3364,-4985.9643 c 0,0 4.8458,-2.7147 15.0925,-2.7147 8.9485,0 5.1183,4.1766 13.6136,4.1766 7.3249,0 16.3948,-3.8553 26.3487,-3.8553 9.954,0 8.0349,4.8763 19.2412,4.8763 11.2063,0 13.648,-4.9072 22.4715,-4.9072"
         id="path11117-2"
         inkscape:connector-curvature="0"
         sodipodi:nodetypes="cccssc"
         transform="matrix(0.78439549,0,0,0.78439549,-1928.5188,4231.7522)" />
      <path
         style="color:#000000;fill:none;stroke:#000000;stroke-width:5.42069483;stroke-linecap:round;stroke-linejoin:round;stroke-miterlimit:4;stroke-opacity:1;stroke-dasharray:none;stroke-dashoffset:0;marker:none;visibility:visible;display:inline;overflow:visible;filter:url(#filter10276-79);enable-background:accumulate"
         d="m -1294.7013,-5074.6103 29.0103,0 -6.6245,8.6238 -15.7613,0 z"
         id="rect11125-8"
         inkscape:connector-curvature="0"
         sodipodi:nodetypes="ccccc"
         transform="matrix(0.78439549,0,0,0.78439549,-1928.5188,4231.7522)" />
    </g>
    <g
       id="g4805"
       transform="translate(-84.5451,-40.844971)">
      <path
         style="color:#000000;fill:none;stroke:#ff0000;stroke-width:1.25;stroke-linecap:round;stroke-linejoin:round;stroke-miterlimit:4;stroke-opacity:1;stroke-dasharray:none;stroke-dashoffset:0;marker:none;visibility:visible;display:inline;overflow:visible;filter:url(#filter10276-79-6);enable-background:accumulate"
         d="m -2146.5486,238.2446 c -10.5627,0 -17.5313,3.46076 -17.5313,17.53125 l 0,149.21875 17.5313,0 98.0624,0 0,-17.53125 -9.5937,0 0,-58.0625 19.625,0 0,39.96875 15.1563,0 0.4687,0 0,-39.96875 c 0,-12.22888 -6.5575,-17.4375 -15.625,-17.4375 l -95.5313,0 0,17.4375 0,58.0625 -12.5624,0 0,-131.6875 8.2812,0 13.7188,38.5625 18.5,0 5.2187,6.75 12.3437,0 5.1876,-6.75 18.5,0 12.9062,-38.5625 10.25,0 0,-17.53125 -104.9062,0 z"
         id="rect6054-4-7-9-2"
         inkscape:connector-curvature="0" />
      <path
         style="color:#000000;fill:none;stroke:#0000ff;stroke-width:1.59358382;stroke-linecap:round;stroke-linejoin:round;stroke-miterlimit:4;stroke-opacity:1;stroke-dasharray:none;stroke-dashoffset:0;marker:none;visibility:visible;display:inline;overflow:visible;filter:url(#filter10276-79-6);enable-background:accumulate"
         d="m -1330.3364,-4985.9643 c 0,0 4.8458,-2.7147 15.0925,-2.7147 8.9485,0 5.1183,4.1766 13.6136,4.1766 7.3249,0 16.3948,-3.8553 26.3487,-3.8553 9.954,0 8.0349,4.8763 19.2412,4.8763 11.2063,0 13.648,-4.9072 22.4715,-4.9072"
         id="path11117-2-0"
         inkscape:connector-curvature="0"
         sodipodi:nodetypes="cccssc"
         transform="matrix(0.78439549,0,0,0.78439549,-1090.4808,4274.8341)" />
      <path
         style="fill:none;stroke:#0000ff;stroke-width:1.25;stroke-linecap:butt;stroke-linejoin:miter;stroke-miterlimit:4;stroke-opacity:1;stroke-dasharray:none;filter:url(#filter10276-79)"
         d="m -2106.0486,294.33833 22.75,0"
         id="path4603"
         inkscape:connector-curvature="0" />
      <path
         style="fill:none;stroke:#0000ff;stroke-width:1.25;stroke-linecap:butt;stroke-linejoin:miter;stroke-miterlimit:4;stroke-opacity:1;stroke-dasharray:none;filter:url(#filter10276-79)"
         d="m -2051.8924,255.77583 -86.375,0"
         id="path4605"
         inkscape:connector-curvature="0" />
      <path
         style="fill:none;stroke:#0000ff;stroke-width:1.25;stroke-linecap:butt;stroke-linejoin:miter;stroke-miterlimit:4;stroke-opacity:1;stroke-dasharray:none;filter:url(#filter10276-79)"
         d="m -2058.0799,329.40083 -75.9063,0"
         id="path4607"
         inkscape:connector-curvature="0" />
      <path
         style="fill:none;stroke:#0000ff;stroke-width:1.25;stroke-linecap:butt;stroke-linejoin:miter;stroke-miterlimit:4;stroke-opacity:1;stroke-dasharray:none;filter:url(#filter10276-79)"
         d="m -2058.0799,387.46333 -75.9063,0"
         id="path4609"
         inkscape:connector-curvature="0" />
    </g>
    <path
       inkscape:connector-curvature="0"
       id="rect6054-4-7-9-1"
       d="m -1422.8604,214.97391 c -5.5147,0 -10.4789,0.86893 -14.125,4 -3.6461,3.13115 -5.5313,8.2703 -5.5313,15.65625 l 0,149.21875 a 2.1261968,2.1261968 0 0 0 2.125,2.125 l 17.375,0 0.1563,0 0.2187,0 97.8437,0 a 2.1261968,2.1261968 0 0 0 2.125,-2.125 l 0,-17.5625 a 2.1261968,2.1261968 0 0 0 -2.125,-2.09375 l -7.4687,0 0,-22.59375 a 2.1261968,2.1261968 0 0 0 0,-1.59375 l 0,-29.625 15.4063,0 0,37.84375 a 2.1261968,2.1261968 0 0 0 2.0937,2.125 l 15.1563,0 0.4687,0 a 2.1261968,2.1261968 0 0 0 2.125,-2.125 l 0,-39.9375 c 0,-6.49385 -1.7915,-11.49733 -5.0313,-14.8125 -3.2397,-3.31517 -7.7768,-4.78125 -12.7187,-4.78125 l -95.5313,0 a 2.1261968,2.1261968 0 0 0 -0.2187,0 2.1261968,2.1261968 0 0 0 -1.9063,2.125 l 0,17.46875 0,34.3125 a 2.1344315,2.1344315 0 0 0 0,0.40625 l 0,21.1875 -8.3124,0 0,-127.40625 4.6562,0 13.2188,37.125 a 2.1261968,2.1261968 0 0 0 2,1.40625 l 17.5,0 4.5312,5.9375 a 2.1261968,2.1261968 0 0 0 1.6875,0.8125 l 12.3437,0 a 2.1261968,2.1261968 0 0 0 1.6876,-0.8125 l 4.5624,-5.9375 17.4688,0 a 2.1261968,2.1261968 0 0 0 2,-1.46875 l 12.4062,-37.0625 8.7188,0 a 2.1261968,2.1261968 0 0 0 2.1562,-2.15625 l 0,-17.53125 a 2.1261968,2.1261968 0 0 0 -2.1562,-2.125 l -104.9062,0 z m 0,4.25 102.7812,0 0,13.28125 -7.4688,0 a 2.1261968,2.1261968 0 0 0 -1.1562,0 l -85.5938,0 a 2.1261968,2.1261968 0 0 0 -0.4374,-0.0312 2.1261968,2.1261968 0 0 0 -0.1876,0.0312 l -7.9374,0 a 2.1261968,2.1261968 0 0 0 -2.125,2.125 l 0,131.5625 a 2.1261968,2.1261968 0 0 0 0,0.0937 l 0,15.4375 -13.2813,0 0,-147.09375 c 0,-6.68454 1.586,-10.27952 4.0625,-12.40625 2.4765,-2.12665 6.2961,-3 11.3438,-3 z m 11.2812,17.5625 80.4375,0 -11.5,34.28125 -56.6875,0 -12.25,-34.28125 z m 33.5312,38.53125 14.1563,0 -1.9375,2.5 -10.2812,0 -1.9376,-2.5 z m -30.125,17.625 93.4063,0 c 4.1254,0 7.3869,1.14603 9.6875,3.5 2.3006,2.35405 3.8125,6.10872 3.8125,11.84375 l 0,37.8125 -11.375,0 0,-37.8125 a 2.1261968,2.1261968 0 0 0 -2.125,-2.15625 l -19.625,0 -73.7813,0 0,-13.1875 z m 0,17.4375 71.6563,0 0,28.4375 c -2.7521,0.31047 -4.8496,1.1766 -6.7813,1.9375 -2.3997,0.94535 -4.634,1.78125 -8.7187,1.78125 -4.0868,0 -5.2147,-0.69031 -6.875,-1.625 -1.6603,-0.93476 -3.9677,-2.1875 -8.2187,-2.1875 -8.3568,0 -15.6566,3 -20.6563,3 -1.4917,0 -2.2815,-0.16828 -2.7187,-0.34375 -0.4373,-0.17555 -0.6331,-0.36128 -1.125,-0.78125 -0.492,-0.42004 -1.2772,-1.07164 -2.4063,-1.5 -1.1291,-0.42836 -2.5173,-0.625 -4.4375,-0.625 -4.2065,0 -7.3668,0.54416 -9.5,1.125 -0.081,0.022 -0.1406,0.0403 -0.2188,0.0625 l 0,-29.28125 z m 9.7188,32.34375 c 1.5894,0 2.4476,0.1891 2.9375,0.375 0.4899,0.1859 0.6889,0.35098 1.1563,0.75 0.4672,0.39894 1.1883,1.06129 2.2812,1.5 1.093,0.43871 2.4724,0.65625 4.3125,0.65625 6.4916,0 13.3974,-3.03125 20.6563,-3.03125 3.5567,0 4.3884,0.64725 6.125,1.625 1.7366,0.97775 4.2652,2.1875 8.9687,2.1875 4.7054,0 7.7955,-1.08326 10.2813,-2.0625 1.8539,-0.73044 3.3241,-1.38001 5.2187,-1.65625 l 0,21.125 -71.6563,0 0,-20.0625 c 0.3555,-0.12827 0.7678,-0.28062 1.3438,-0.4375 1.7767,-0.48382 4.544,-0.96875 8.375,-0.96875 z m -22.2812,25.71875 93.8124,0 0,13.28125 -93.8124,0 0,-13.28125 z"
       style="font-size:medium;font-style:normal;font-variant:normal;font-weight:normal;font-stretch:normal;text-indent:0;text-align:start;text-decoration:none;line-height:normal;letter-spacing:normal;word-spacing:normal;text-transform:none;direction:ltr;block-progression:tb;writing-mode:lr-tb;text-anchor:start;baseline-shift:baseline;color:#000000;fill:#000000;fill-opacity:1;stroke:none;stroke-width:5.42069483;marker:none;visibility:visible;display:inline;overflow:visible;filter:url(#filter10276-79-0);enable-background:accumulate;font-family:Sans;-inkscape-font-specification:Sans" />
    <g
       id="g5023"
       style="fill:none">
      <path
         id="path6614-1-8"
         transform="translate(0,520.86482)"
         d="M -2177.4062 62.53125 C -2177.5989 62.53125 -2177.7812 62.578 -2177.7812 62.625 C -2177.7812 62.739 -2180.2532 63.41215 -2181.75 63.71875 C -2182.0299 63.77615 -2182.8857 64.6902 -2183.5312 65.625 C -2183.7267 65.9078 -2184.4401 66.7955 -2184.9062 67.3125 C -2185.1218 67.5517 -2185.4265 67.76075 -2185.75 67.84375 C -2186.1984 67.95935 -2186.3356 67.93755 -2186.8438 67.71875 C -2187.7987 67.30735 -2188.0558 66.5206 -2187.6875 65.125 C -2187.6155 64.8498 -2187.5747 64.49325 -2187.5938 64.34375 L -2187.625 64.09375 L -2188.2188 64.5 C -2188.5458 64.7258 -2188.8755 64.88175 -2188.9375 64.84375 C -2188.9995 64.80575 -2189.017 64.811 -2189 64.875 C -2188.9657 65.0045 -2189.8528 65.64135 -2190.5938 66.03125 C -2190.8571 66.16985 -2191.0625 66.331 -2191.0625 66.375 C -2191.0625 66.4185 -2191.2258 66.5627 -2191.4375 66.6875 C -2191.8319 66.9203 -2192.1908 67.54295 -2192.3438 68.28125 C -2192.3864 68.48905 -2192.4967 68.9087 -2192.5938 69.1875 C -2192.6907 69.4663 -2192.927 70.0705 -2193.0938 70.5625 C -2193.5725 71.9749 -2194.2454 72.47665 -2195.375 72.21875 C -2196.2095 72.02835 -2196.6806 71.3751 -2196.7188 70.3125 C -2196.7324 69.9307 -2196.7886 69.625 -2196.8438 69.625 C -2196.8987 69.625 -2196.908 69.58425 -2196.875 69.53125 C -2196.8429 69.47845 -2196.8888 69.32855 -2196.9688 69.21875 C -2197.1026 69.03575 -2197.1155 69.05775 -2197.2812 69.40625 C -2197.381 69.61535 -2197.5721 69.90735 -2197.6875 70.03125 C -2197.8031 70.15515 -2198.1038 70.56615 -2198.375 70.96875 C -2198.6461 71.37155 -2198.8995 71.719 -2198.9375 71.75 C -2198.9753 71.7809 -2199.2621 72.16845 -2199.5625 72.59375 L -2200.0938 73.375 L -2200.0312 75.6875 C -2199.9437 78.2384 -2199.9716 78.4864 -2200.5312 79 C -2201.2033 79.6163 -2202.2281 79.54255 -2202.9062 78.84375 C -2203.142 78.60095 -2203.3438 78.31575 -2203.3438 78.21875 C -2203.3438 77.95595 -2204.1275 77.0004 -2204.1875 77.1875 C -2204.2149 77.2726 -2204.3113 77.6283 -2204.4062 78 C -2204.5017 78.3717 -2204.6837 79.0348 -2204.8125 79.4375 C -2204.9415 79.8402 -2205.0932 80.34585 -2205.1562 80.59375 C -2205.2196 80.84145 -2205.317 81.21595 -2205.375 81.40625 C -2205.4333 81.59645 -2205.4688 81.88075 -2205.4688 82.03125 C -2205.4698 82.28315 -2204.2943 85.40475 -2203.9375 86.09375 C -2203.4157 87.10115 -2204.332 88.4375 -2205.5312 88.4375 C -2206.0123 88.4375 -2206.8438 88.10065 -2206.8438 87.90625 C -2206.8438 87.70555 -2207.9779 86.85315 -2208.0938 86.96875 C -2208.1484 87.02365 -2208.1336 87.6134 -2208.0312 88.3125 C -2207.9309 88.9953 -2207.8438 89.9531 -2207.8438 90.4375 C -2207.8421 90.9219 -2207.7847 91.5022 -2207.7188 91.75 C -2207.6525 91.9978 -2207.6037 92.30245 -2207.5938 92.40625 C -2207.5855 92.51015 -2207.546 92.56025 -2207.5 92.53125 C -2207.396 92.46705 -2206.7735 93.14485 -2206.8125 93.28125 C -2206.828 93.33525 -2206.7645 93.391 -2206.6875 93.375 C -2206.6098 93.3595 -2206.5465 93.39175 -2206.5625 93.46875 C -2206.5775 93.54645 -2206.5386 93.60975 -2206.4688 93.59375 C -2206.3989 93.57825 -2206.3122 93.63275 -2206.2812 93.71875 C -2206.2432 93.82375 -2206.278 93.84125 -2206.375 93.78125 C -2206.468 93.72325 -2206.4875 93.7325 -2206.4375 93.8125 C -2206.395 93.8805 -2206.3005 93.907 -2206.2188 93.875 C -2206.137 93.8436 -2206.0033 93.95125 -2205.9062 94.09375 C -2205.8827 94.128496 -2205.8185 94.200887 -2205.7812 94.25 L -2276.9062 94.25 L -2276.9062 117.46875 L -2239.4375 117.46875 L -2239.4375 211.78125 L -2116.5625 211.78125 L -2116.5625 117.46875 L -2079.0938 117.46875 L -2079.0938 94.25 L -2148.4688 94.25 C -2148.5286 94.08933 -2148.6001 93.976087 -2148.6875 93.9375 C -2148.7353 93.9164 -2149.1345 93.4641 -2149.5938 92.9375 C -2150.0529 92.4109 -2150.5269 91.8745 -2150.6562 91.75 C -2150.7858 91.6256 -2151.0801 91.3188 -2151.2812 91.0625 C -2151.5966 90.6614 -2151.625 90.51905 -2151.625 89.96875 C -2151.625 89.44625 -2151.5641 89.23605 -2151.3125 88.90625 C -2150.9048 88.37165 -2150.4227 88.18425 -2149.75 88.28125 C -2149.461 88.32305 -2149.1555 88.3925 -2149.0938 88.4375 C -2149.0318 88.4827 -2148.8739 88.5275 -2148.75 88.5625 C -2148.6261 88.5973 -2148.3806 88.69 -2148.1875 88.75 C -2147.7014 88.9008 -2147.521 88.7832 -2147.7188 88.4375 C -2147.802 88.2922 -2147.923 88.084 -2148 88 C -2148.0778 87.9157 -2148.1562 87.79775 -2148.1562 87.71875 C -2148.1562 87.64015 -2148.2913 87.27235 -2148.4688 86.90625 C -2148.7868 86.24815 -2149.0188 85.7039 -2149.3438 84.9375 C -2149.4353 84.7207 -2149.566 84.4385 -2149.625 84.3125 C -2149.686 84.182 -2150.3119 83.7817 -2151.0938 83.375 C -2154.3104 81.7013 -2154.4375 81.59485 -2154.4375 80.46875 C -2154.4375 79.82785 -2154.4171 79.7599 -2154 79.3125 L -2153.5625 78.8125 L -2152.4375 78.8125 C -2151.7988 78.8064 -2151.2565 78.7565 -2151.1875 78.6875 C -2151.101 78.601 -2151.5756 78.0504 -2152.8438 76.75 C -2154.4725 75.0794 -2154.6386 74.90625 -2155 74.90625 C -2155.2168 74.90655 -2155.8169 74.839 -2156.3125 74.75 C -2157.859 74.4728 -2158.6891 74.34375 -2159 74.34375 C -2159.2048 74.34375 -2159.4683 74.18795 -2159.8125 73.84375 C -2160.2885 73.36735 -2160.3125 73.31245 -2160.3125 72.71875 C -2160.3125 72.05875 -2160.1399 71.5949 -2159.7812 71.3125 C -2159.3963 71.0093 -2159.0464 70.83925 -2158.9375 70.90625 C -2158.8359 70.96905 -2158.0772 70.6851 -2157.7188 70.4375 C -2157.5738 70.337 -2157.5873 70.2716 -2157.7812 70.125 C -2157.9048 70.0316 -2158.053 69.96875 -2158.125 69.96875 C -2158.2409 69.96555 -2161.5087 68.44985 -2162.0312 68.15625 C -2162.1425 68.09125 -2162.2615 68.06175 -2162.3125 68.09375 C -2162.364 68.12555 -2162.8877 68.2185 -2163.4688 68.3125 C -2164.0496 68.4063 -2164.9103 68.59545 -2165.375 68.71875 C -2166.3406 68.97475 -2167.2998 69.0181 -2167.6562 68.8125 C -2168.365 68.4039 -2168.7559 67.5047 -2168.5312 66.8125 C -2168.3654 66.3005 -2167.9722 65.76475 -2167.8438 65.84375 C -2167.7912 65.87615 -2167.4864 65.6382 -2167.1562 65.3125 L -2166.5625 64.71875 L -2167.4062 64.65625 C -2168.3238 64.57645 -2170.1484 64.39265 -2171.0625 64.28125 C -2171.5182 64.22585 -2171.7693 64.241 -2172.1875 64.4375 C -2172.4766 64.5734 -2172.6875 64.72625 -2172.6875 64.78125 C -2172.6875 64.83645 -2172.7586 64.875 -2172.8438 64.875 C -2172.929 64.875 -2173.0793 64.9705 -2173.1562 65.0625 C -2173.233 65.1545 -2173.32 65.19025 -2173.375 65.15625 C -2173.43 65.12325 -2173.5 65.15275 -2173.5 65.21875 C -2173.5 65.28405 -2173.5276 65.34375 -2173.5938 65.34375 C -2173.6599 65.34375 -2173.8963 65.44665 -2174.0938 65.59375 C -2174.514 65.90765 -2175.2863 66.39675 -2175.8438 66.65625 C -2176.1737 66.81015 -2176.3254 66.797 -2176.75 66.6875 C -2177.3127 66.5425 -2177.9426 65.9778 -2178.0625 65.5 C -2178.2049 64.9326 -2178.0109 64.2373 -2177.5938 63.75 C -2177.3764 63.4961 -2177.2188 63.1702 -2177.2188 63.0625 C -2177.2188 62.9548 -2177.163 62.81675 -2177.125 62.71875 C -2177.0717 62.57955 -2177.1336 62.53125 -2177.4062 62.53125 z "
         style="fill:none;fill-opacity:1;stroke:#ff0000;stroke-width:1.25000000000000000;stroke-miterlimit:4;stroke-opacity:1;stroke-dasharray:none;display:inline;filter:url(#filter10276-6-3)" />
      <path
         transform="translate(0,520.86482)"
         inkscape:connector-curvature="0"
         id="path4928"
         d="m -2239.4375,117.46875 122.875,0"
         style="fill:none;stroke:#0000ff;stroke-width:1.25000000000000000;stroke-linecap:butt;stroke-linejoin:miter;stroke-opacity:1;stroke-miterlimit:4;stroke-dasharray:none" />
      <path
         transform="translate(0,520.86482)"
         inkscape:connector-curvature="0"
         id="path4930"
         d="m -2148.4688,94.25 -57.3124,0"
         style="fill:none;stroke:#0000ff;stroke-width:1.25000000000000000;stroke-linecap:butt;stroke-linejoin:miter;stroke-opacity:1;stroke-miterlimit:4;stroke-dasharray:none" />
    </g>
    <g
       id="g5018"
       transform="translate(7.9999619,-5.8221272)">
      <path
         inkscape:connector-curvature="0"
         id="path6614-1"
         d="m -2988.2968,586.07672 c -0.1925,0 -0.375,0.0467 -0.375,0.0937 0,0.114 -2.472,0.8184 -3.9688,1.125 -0.2799,0.0574 -1.1357,0.97145 -1.7812,1.90625 -0.1953,0.2828 -0.9089,1.1705 -1.375,1.6875 -0.2156,0.2392 -0.5203,0.417 -0.8438,0.5 -0.4484,0.1156 -0.5858,0.0938 -1.0938,-0.125 -0.9551,-0.4114 -1.212,-1.19815 -0.8437,-2.59375 0.072,-0.2752 0.1127,-0.6005 0.094,-0.75 l -0.031,-0.28125 -0.5938,0.40625 c -0.3272,0.2258 -0.6567,0.38175 -0.7187,0.34375 -0.062,-0.038 -0.079,-0.002 -0.062,0.0625 0.034,0.1295 -0.8528,0.76635 -1.5938,1.15625 -0.2633,0.1386 -0.4687,0.2685 -0.4687,0.3125 0,0.0435 -0.1633,0.1877 -0.375,0.3125 -0.3944,0.2328 -0.7535,0.8867 -0.9063,1.625 -0.043,0.2078 -0.1529,0.5962 -0.25,0.875 -0.097,0.2788 -0.3332,0.91425 -0.5,1.40625 -0.4787,1.4124 -1.1516,1.91415 -2.2812,1.65625 -0.8345,-0.1904 -1.3057,-0.84365 -1.3438,-1.90625 -0.014,-0.3818 -0.07,-0.71875 -0.125,-0.71875 -0.055,0 -0.064,-0.0408 -0.031,-0.0937 0.032,-0.0528 -0.014,-0.17145 -0.094,-0.28125 -0.1338,-0.183 -0.1466,-0.161 -0.3124,0.1875 -0.1,0.2091 -0.2909,0.46985 -0.4063,0.59375 -0.1156,0.1239 -0.4163,0.56615 -0.6875,0.96875 -0.2711,0.4028 -0.5245,0.75025 -0.5625,0.78125 -0.038,0.0309 -0.3246,0.3872 -0.625,0.8125 l -0.5313,0.78125 0.063,2.34375 c 0.088,2.5509 0.06,2.76765 -0.5,3.28125 -0.6719,0.6163 -1.6969,0.5738 -2.375,-0.125 -0.2357,-0.2428 -0.4376,-0.528 -0.4376,-0.625 0,-0.2628 -0.7837,-1.2496 -0.8437,-1.0625 -0.027,0.0851 -0.1238,0.47205 -0.2187,0.84375 -0.095,0.3717 -0.2775,1.00355 -0.4063,1.40625 -0.129,0.4027 -0.2807,0.9396 -0.3437,1.1875 -0.063,0.2477 -0.1608,0.59095 -0.2188,0.78125 -0.058,0.1902 -0.094,0.4745 -0.094,0.625 0,0.2519 1.1745,3.3735 1.5313,4.0625 0.5218,1.0074 -0.3945,2.34375 -1.5937,2.34375 -0.481,0 -1.3126,-0.33685 -1.3126,-0.53125 0,-0.2007 -1.1343,-1.0531 -1.25,-0.9375 -0.055,0.0549 -0.04,0.64465 0.063,1.34375 0.1003,0.6828 0.1874,1.6406 0.1874,2.125 0,0.4844 0.059,1.09595 0.125,1.34375 0.066,0.2478 0.115,0.5212 0.125,0.625 0.01,0.1039 0.048,0.18525 0.094,0.15625 0.104,-0.0642 0.7265,0.6136 0.6875,0.75 -0.015,0.054 0.048,0.0785 0.125,0.0625 0.078,-0.0155 0.141,0.048 0.125,0.125 -0.015,0.0777 0.024,0.10975 0.094,0.0937 0.07,-0.0155 0.1566,0.039 0.1876,0.125 0.038,0.105 0,0.15375 -0.094,0.0937 -0.093,-0.058 -0.1125,-0.0488 -0.062,0.0312 0.043,0.068 0.1368,0.0945 0.2187,0.0625 0.082,-0.0314 0.2155,0.045 0.3126,0.1875 0.028,0.0412 0.1098,0.12698 0.1562,0.1875 l 57.2812,0 c -0.061,-0.16528 -0.13,-0.30457 -0.2187,-0.34375 -0.048,-0.0211 -0.4471,-0.4734 -0.9063,-1 -0.4591,-0.5266 -0.9331,-1.03175 -1.0624,-1.15625 -0.1294,-0.1244 -0.4237,-0.46245 -0.625,-0.71875 -0.3152,-0.4011 -0.3438,-0.54345 -0.3438,-1.09375 0,-0.5225 0.061,-0.70145 0.3125,-1.03125 0.4077,-0.5346 0.8898,-0.75325 1.5625,-0.65625 0.289,0.0418 0.5943,0.11125 0.6562,0.15625 0.062,0.0452 0.2199,0.12125 0.3438,0.15625 0.1239,0.0348 0.3694,0.0962 0.5625,0.15625 0.4861,0.1508 0.6665,0.0332 0.4687,-0.3125 -0.083,-0.1453 -0.2042,-0.32225 -0.2812,-0.40625 -0.078,-0.0843 -0.1562,-0.2335 -0.1562,-0.3125 0,-0.0786 -0.1353,-0.4464 -0.3126,-0.8125 -0.3182,-0.6581 -0.5502,-1.1711 -0.875,-1.9375 -0.092,-0.2168 -0.2222,-0.499 -0.2812,-0.625 -0.061,-0.1305 -0.687,-0.56205 -1.4688,-0.96875 -3.2168,-1.6737 -3.3437,-1.78015 -3.3437,-2.90625 0,-0.6409 0.02,-0.70885 0.4375,-1.15625 l 0.4375,-0.46875 1.125,-0.0312 c 0.6387,-0.006 1.181,-0.056 1.25,-0.125 0.087,-0.0865 -0.3882,-0.6371 -1.6563,-1.9375 -1.6289,-1.6706 -1.7948,-1.8125 -2.1562,-1.8125 -0.2168,3e-4 -0.8169,-0.0673 -1.3125,-0.15625 -1.5465,-0.2772 -2.3766,-0.40625 -2.6875,-0.40625 -0.2048,0 -0.4683,-0.1558 -0.8125,-0.5 -0.476,-0.4764 -0.5,-0.56255 -0.5,-1.15625 0,-0.66 0.1728,-1.12385 0.5313,-1.40625 0.3851,-0.3032 0.7348,-0.442 0.8437,-0.375 0.1016,0.0628 0.8603,-0.2524 1.2187,-0.5 0.1448,-0.1005 0.1317,-0.13465 -0.062,-0.28125 -0.1236,-0.0934 -0.2718,-0.1875 -0.3438,-0.1875 -0.1159,-0.003 -3.3836,-1.5189 -3.9062,-1.8125 -0.1111,-0.065 -0.2303,-0.0633 -0.2813,-0.0312 -0.052,0.0318 -0.5752,0.12475 -1.1563,0.21875 -0.581,0.0938 -1.4415,0.2517 -1.9062,0.375 -0.9656,0.256 -1.9248,0.29935 -2.2812,0.0937 -0.7088,-0.4086 -1.0995,-1.27655 -0.875,-1.96875 0.166,-0.512 0.559,-1.04775 0.6874,-0.96875 0.052,0.0324 0.3574,-0.20555 0.6876,-0.53125 l 0.5937,-0.59375 -0.8437,-0.0937 c -0.9174,-0.0798 -2.7422,-0.2636 -3.6563,-0.375 -0.4557,-0.0554 -0.7068,-0.009 -1.125,0.1875 -0.2891,0.1359 -0.5,0.28875 -0.5,0.34375 0,0.0552 -0.071,0.0937 -0.1563,0.0937 -0.085,0 -0.2354,0.0643 -0.3124,0.15625 -0.077,0.092 -0.1638,0.159 -0.2188,0.125 -0.055,-0.033 -0.125,-0.004 -0.125,0.0625 0,0.0653 -0.028,0.0937 -0.094,0.0937 -0.066,0 -0.3027,0.13415 -0.5,0.28125 -0.4204,0.3139 -1.1925,0.77175 -1.75,1.03125 -0.3301,0.1539 -0.4816,0.172 -0.9062,0.0625 -0.5627,-0.145 -1.1926,-0.7097 -1.3125,-1.1875 -0.1424,-0.5674 0.052,-1.29395 0.4687,-1.78125 0.2174,-0.2539 0.375,-0.54855 0.375,-0.65625 0,-0.1077 0.056,-0.277 0.094,-0.375 0.053,-0.1392 -0.01,-0.1875 -0.2812,-0.1875 z"
         style="fill:#000000;fill-opacity:1;stroke:#000000;stroke-width:4.25196838;stroke-miterlimit:4;stroke-opacity:1;stroke-dasharray:none;display:inline;filter:url(#filter10276-6)" />
      <rect
         y="641.04034"
         x="-3049.4314"
         height="94.313164"
         width="122.86272"
         id="rect5963-4-0-5-4"
         style="fill:none;stroke:#000000;stroke-width:4.25196838;stroke-linecap:round;stroke-linejoin:round;stroke-miterlimit:4;stroke-opacity:1;stroke-dasharray:none;display:inline;filter:url(#filter6521-6)" />
      <rect
         y="617.82672"
         x="-3086.9199"
         height="23.213625"
         width="197.83992"
         id="rect5961-4-3-7-8"
         style="fill:#ffffff;fill-opacity:1;stroke:#000000;stroke-width:4.25196838;stroke-linecap:round;stroke-linejoin:round;stroke-miterlimit:4;stroke-opacity:1;stroke-dasharray:none;display:inline;filter:url(#filter6521-6-3)" />
    </g>
    <path
       style="fill:#000000;fill-opacity:1;stroke:none;display:inline;filter:url(#filter10276-6-7)"
       d="m -1370.0499,582.31794 c -0.1926,0 -0.375,0.0467 -0.375,0.0937 0,0.11401 -2.472,0.8184 -3.9688,1.125 -0.2799,0.0574 -1.1358,0.97146 -1.7812,1.90625 -0.1954,0.2828 -0.9089,1.1705 -1.375,1.6875 -0.2156,0.2392 -0.5203,0.41701 -0.8438,0.5 -0.4484,0.1156 -0.617,0.0938 -1.125,-0.125 -0.9551,-0.41139 -1.1808,-1.19814 -0.8125,-2.59375 0.072,-0.2752 0.1124,-0.6005 0.094,-0.75 l -0.031,-0.28125 -0.5938,0.40625 c -0.3271,0.22581 -0.6567,0.38176 -0.7187,0.34375 -0.062,-0.038 -0.08,-0.002 -0.062,0.0625 0.034,0.12951 -0.8527,0.76635 -1.5938,1.15625 -0.2633,0.1386 -0.4687,0.26851 -0.4687,0.3125 0,0.0435 -0.1633,0.1877 -0.375,0.3125 -0.3944,0.2328 -0.7534,0.88671 -0.9063,1.625 -0.043,0.20781 -0.1529,0.5962 -0.25,0.875 -0.097,0.27881 -0.3332,0.91426 -0.5,1.40625 -0.4786,1.41241 -1.1516,1.91416 -2.2812,1.65625 -0.8345,-0.19039 -1.3056,-0.84365 -1.3438,-1.90625 -0.014,-0.3818 -0.07,-0.71875 -0.125,-0.71875 -0.055,0 -0.064,-0.0408 -0.031,-0.0937 0.032,-0.0528 -0.014,-0.17145 -0.094,-0.28125 -0.1338,-0.18299 -0.1467,-0.161 -0.3124,0.1875 -0.1,0.20911 -0.2909,0.46985 -0.4063,0.59375 -0.1156,0.12391 -0.4163,0.56615 -0.6875,0.96875 -0.2711,0.4028 -0.5245,0.75026 -0.5625,0.78125 -0.038,0.0309 -0.3246,0.38721 -0.625,0.8125 l -0.5313,0.78125 0.063,2.34375 c 0.088,2.5509 0.06,2.76765 -0.5,3.28125 -0.672,0.61631 -1.6969,0.57381 -2.375,-0.125 -0.2357,-0.24279 -0.4376,-0.528 -0.4376,-0.625 0,-0.26279 -0.7837,-1.24959 -0.8437,-1.0625 -0.027,0.0851 -0.1239,0.47205 -0.2187,0.84375 -0.095,0.37171 -0.2775,1.00356 -0.4063,1.40625 -0.129,0.4027 -0.2808,0.93961 -0.3437,1.1875 -0.063,0.24771 -0.1608,0.59096 -0.2188,0.78125 -0.058,0.19021 -0.094,0.47451 -0.094,0.625 0,0.2519 1.1745,3.37351 1.5313,4.0625 0.5218,1.0074 -0.3946,2.34375 -1.5937,2.34375 -0.481,0 -1.3126,-0.33685 -1.3126,-0.53125 0,-0.20069 -1.1342,-1.05309 -1.25,-0.9375 -0.055,0.0549 -0.04,0.64465 0.063,1.34375 0.1003,0.68281 0.1874,1.6406 0.1874,2.125 0,0.48441 0.059,1.09596 0.125,1.34375 0.039,0.14774 0.04,0.25044 0.063,0.375 l -68.375,0 a 2.1261968,2.1261968 0 0 0 -0.2188,0 2.1261968,2.1261968 0 0 0 -1.9062,2.125 l 0,23.21875 a 2.1261968,2.1261968 0 0 0 2.125,2.125 l 35.3437,0 0,92.1875 a 2.1261968,2.1261968 0 0 0 2.125,2.125 l 122.875,0 a 2.1261968,2.1261968 0 0 0 2.125,-2.125 l 0,-92.1875 35.3437,0 a 2.1261968,2.1261968 0 0 0 2.125,-2.125 l 0,-23.21875 a 2.1261968,2.1261968 0 0 0 -2.125,-2.125 l -72.0937,0 c -0.102,-0.10802 -0.3019,-0.33466 -0.3437,-0.375 -0.1295,-0.1244 -0.4238,-0.46244 -0.625,-0.71875 -0.3153,-0.4011 -0.3438,-0.54345 -0.3438,-1.09375 0,-0.5225 0.061,-0.70145 0.3125,-1.03125 0.4077,-0.53459 0.8898,-0.75324 1.5625,-0.65625 0.289,0.0418 0.5944,0.11126 0.6562,0.15625 0.062,0.0452 0.2199,0.12126 0.3438,0.15625 0.1239,0.0348 0.3694,0.0962 0.5625,0.15625 0.4861,0.15081 0.6666,0.0332 0.4687,-0.3125 -0.083,-0.1453 -0.2042,-0.32224 -0.2812,-0.40625 -0.078,-0.0843 -0.1562,-0.2335 -0.1562,-0.3125 0,-0.0786 -0.1352,-0.4464 -0.3126,-0.8125 -0.3181,-0.65809 -0.5501,-1.1711 -0.875,-1.9375 -0.092,-0.2168 -0.2222,-0.499 -0.2812,-0.625 -0.061,-0.13049 -0.6869,-0.56205 -1.4688,-0.96875 -3.2167,-1.6737 -3.3437,-1.78015 -3.3437,-2.90625 0,-0.64089 0.02,-0.70884 0.4375,-1.15625 l 0.4375,-0.46875 1.125,-0.0312 c 0.6387,-0.006 1.181,-0.056 1.25,-0.125 0.087,-0.0865 -0.3881,-0.6371 -1.6563,-1.9375 -1.6288,-1.6706 -1.7948,-1.8125 -2.1562,-1.8125 -0.2168,3.1e-4 -0.8169,-0.0673 -1.3125,-0.15625 -1.5465,-0.27719 -2.3766,-0.40625 -2.6875,-0.40625 -0.2048,0 -0.4683,-0.1558 -0.8125,-0.5 -0.476,-0.4764 -0.5,-0.56254 -0.5,-1.15625 0,-0.65999 0.1727,-1.12384 0.5313,-1.40625 0.385,-0.3032 0.7348,-0.442 0.8437,-0.375 0.1016,0.0628 0.8604,-0.25239 1.2187,-0.5 0.1449,-0.1005 0.1312,-0.13464 -0.062,-0.28125 -0.1236,-0.0934 -0.2718,-0.1875 -0.3438,-0.1875 -0.1159,-0.003 -3.3836,-1.5189 -3.9062,-1.8125 -0.1112,-0.065 -0.2303,-0.0634 -0.2813,-0.0312 -0.052,0.0318 -0.5751,0.12475 -1.1563,0.21875 -0.5809,0.0938 -1.4415,0.25171 -1.9062,0.375 -0.9656,0.256 -1.9249,0.2994 -2.2812,0.0937 -0.7089,-0.40859 -1.0996,-1.27655 -0.875,-1.96875 0.1659,-0.51199 0.559,-1.04774 0.6874,-0.96875 0.052,0.0324 0.3574,-0.20555 0.6876,-0.53125 l 0.5937,-0.59375 -0.8437,-0.0937 c -0.9175,-0.0798 -2.7422,-0.2636 -3.6563,-0.375 -0.4557,-0.0554 -0.7068,-0.009 -1.125,0.1875 -0.2891,0.1359 -0.5,0.28875 -0.5,0.34375 0,0.0552 -0.071,0.0937 -0.1563,0.0937 -0.085,0 -0.2355,0.0643 -0.3124,0.15625 -0.077,0.092 -0.1638,0.159 -0.2188,0.125 -0.055,-0.033 -0.125,-0.004 -0.125,0.0625 0,0.0653 -0.028,0.0937 -0.094,0.0937 -0.066,0 -0.3026,0.13415 -0.5,0.28125 -0.4203,0.3139 -1.1925,0.77175 -1.75,1.03125 -0.33,0.15391 -0.4816,0.17201 -0.9062,0.0625 -0.5627,-0.14499 -1.1926,-0.7097 -1.3125,-1.1875 -0.1424,-0.5674 0.052,-1.29394 0.4687,-1.78125 0.2174,-0.2539 0.375,-0.54854 0.375,-0.65625 0,-0.1077 0.056,-0.277 0.094,-0.375 0.053,-0.13919 -0.01,-0.1875 -0.2812,-0.1875 z m -96.5,33.875 193.5624,0 0,18.96875 -35.1874,0 -123.25,0 -35.125,0 0,-18.96875 z m 37.4687,23.21875 118.625,0 0,90.0625 -118.625,0 0,-90.0625 z"
       id="path6614-1-3"
       inkscape:connector-curvature="0" />
  </g>
</svg>
